<?xml version="1.0" encoding="UTF-8" standalone="no"?>
<!-- Created with Inkscape (http://www.inkscape.org/) -->

<svg
   width="1104"
   height="1056"
   viewBox="0 0 1175.2963 1124.1965"
   version="1.1"
   id="svg5"
   sodipodi:docname="signOfDeveloper.svg"
   inkscape:version="1.1 (c68e22c387, 2021-05-23)"
   xmlns:inkscape="http://www.inkscape.org/namespaces/inkscape"
   xmlns:sodipodi="http://sodipodi.sourceforge.net/DTD/sodipodi-0.dtd"
   xmlns="http://www.w3.org/2000/svg"
   xmlns:svg="http://www.w3.org/2000/svg">
  <sodipodi:namedview
     id="namedview7"
     pagecolor="#ffffff"
     bordercolor="#999999"
     borderopacity="1"
     inkscape:pageshadow="0"
     inkscape:pageopacity="0"
     inkscape:pagecheckerboard="0"
     inkscape:document-units="px"
     showgrid="false"
     inkscape:zoom="0.54299808"
     inkscape:cx="759.67119"
     inkscape:cy="531.30943"
     inkscape:window-width="1920"
     inkscape:window-height="1051"
     inkscape:window-x="-9"
     inkscape:window-y="-9"
     inkscape:window-maximized="1"
     inkscape:current-layer="layer1"
     units="px"
     scale-x="1.06458" />
  <defs
     id="defs2" />
  <g
     inkscape:label="Layer 1"
     inkscape:groupmode="layer"
     id="layer1">
    <ellipse
       id="path10890"
       style="fill:#000000;stroke:#000000;stroke-width:0.197157"
       cx="84.631149"
       cy="151.98576"
       rx="0.073654659"
       ry="0.06354551" />
    <ellipse
       id="path10892"
       style="fill:#000000;stroke:#000000;stroke-width:0.197157"
       cx="84.631149"
       cy="151.98576"
       rx="0.073654659"
       ry="0.06354551" />
    <path
       id="path1027"
       style="fill:#f2f2f2;stroke-width:0.973104"
       d="m 686.58272,258.1689 c -1.81665,-0.41917 -5.11881,1.71943 -13.22301,5.46449 -1.02697,0.4746 0.10946,2.15978 0.2268,3.23555 0.14627,1.34338 0.37416,2.67704 0.56294,4.01567 3.5574,15.65046 8.65159,30.98252 13.62797,46.27553 0.93723,2.71827 1.70222,5.48628 2.59604,8.21828 0.23838,1.33945 0.5332,2.66949 0.75328,4.01208 0.57689,4.48435 1.25064,8.95838 1.73336,13.45268 0.12329,1.14753 0.18368,2.2993 0.29563,3.44766 -0.33291,0.20352 -0.57589,0.26898 -0.93956,0.51049 -4.93858,3.27975 -7.37496,8.50779 -9.95473,13.46349 -1.93042,4.46146 -3.24372,7.06536 -4.4873,11.8313 -0.42344,1.62273 -0.66035,3.2568 -0.92745,4.88928 -3.41877,-1.43735 -6.97358,-2.60142 -10.60674,-3.56629 -1.88182,-0.65671 -4.0994,-1.3946 -6.24904,-2.11748 -0.40541,-3.16025 -1.14543,-6.19751 -2.92404,-8.47714 -0.54933,-0.70408 -1.28769,-1.25574 -1.93182,-1.88382 -7.50142,-4.59899 -11.86237,-1.53662 -21.335,2.71788 -0.68794,0.30908 -0.62884,1.33941 -0.70469,2.05636 -0.0438,0.41486 0.0606,0.82875 0.12563,1.24388 0.0586,-0.0228 -0.53546,0.19953 0.008,0.0719 0.0563,0.34914 0.0705,0.69707 0.10538,1.04617 0.46039,0.83885 0.78764,1.75973 1.38103,2.52013 2.61518,3.35143 7.04958,5.36897 11.5585,7.06786 0.3103,3.57258 0.26182,7.24193 0.44547,9.55206 -0.11686,15.15465 -1.82146,30.24648 -4.46704,45.18983 -6.526,0.89277 -13.15569,3.94769 -18.41501,5.86713 -1.41409,0.51605 -2.76133,1.21606 -4.01349,2.02399 -1.20596,0.77814 -2.21172,1.80479 -3.31688,2.70709 -0.70409,1.08003 -1.57166,2.07687 -2.11003,3.23912 -1.48461,3.20541 -1.56603,7.05034 -0.24298,10.34298 -0.29045,-0.34281 -0.61178,-0.65718 -0.89097,-1.01021 -1.9744,-2.80498 -3.78973,-5.70548 -5.42286,-8.68925 -0.85665,-6.04366 -2.36419,-12.0211 -4.06611,-17.88537 -2.23603,-7.00449 -4.51066,-13.9995 -6.1883,-21.14611 -1.35775,-6.11433 -1.55317,-5.35906 -10.04786,-0.58959 -5.02286,0.21088 -5.39006,0.41743 -4.75056,2.59921 -0.23097,0.12034 -0.30756,0.17512 -0.54674,0.2984 -0.36297,0.18711 1.10068,7.17443 1.22306,7.74016 1.71161,7.61839 3.59405,15.21124 5.79547,22.71714 1.09352,3.84849 2.71687,7.4884 4.60475,11.01165 0.27327,2.17156 0.45909,4.35269 0.51028,6.543 0.0703,9.45565 0.10381,18.97361 -1.48226,28.3362 -1.58962,7.09468 -3.86713,14.19455 -8.34284,20.07837 -0.16264,-0.0431 -0.33712,-0.0716 -0.49814,-0.11498 -3.99982,-1.46264 -7.72349,-3.52158 -11.18184,-5.91745 -4.63187,-3.82681 -8.21053,-8.6377 -10.45287,-14.07106 -3.4571,-8.97059 -5.36651,-18.43279 -6.02629,-27.96231 0.13089,-0.27052 0.3056,-0.52083 0.42928,-0.79449 1.65775,-3.66738 2.06556,-6.09674 3.02127,-9.9691 2.04472,-9.88775 1.96087,-20.00142 1.44985,-30.01869 -0.0847,-1.27727 -0.13148,-2.55787 -0.25512,-3.83232 -0.0249,-0.24919 -0.39394,-2.95388 -0.93554,-4.76344 0.008,-0.0173 -0.0117,-0.0258 -0.008,-0.0396 -0.2765,-0.91228 -0.58557,-1.64666 -0.94363,-1.57822 -15.22901,2.91076 -13.81414,-0.34866 -15.35327,6.2446 -1.4026,6.32042 -1.56286,12.80778 -1.7536,19.24071 -0.12213,8.75105 -0.0397,17.50309 -0.0203,26.25467 0.0292,0.47871 0.0989,0.95587 0.13362,1.43444 -3.00745,5.88703 -7.49075,11.04696 -11.98779,15.94047 -1.09128,1.06695 -2.1254,2.19034 -3.27639,3.19959 -0.91711,0.80415 -1.93003,1.48899 -2.92809,2.19299 0.0281,-4.37819 -0.67863,-8.68807 -2.6041,-13.10757 -1.29293,-2.96764 -2.82569,-5.11781 -4.57238,-7.80846 -4.4513,-5.74148 -7.04282,-7.98606 -14.48252,-9.12064 -9.63963,-0.57102 -17.04785,2.91966 -26.0005,7.31953 -1.23125,0.60509 -4.82982,5.25357 -5.64157,6.25178 -4.81599,5.96966 -6.5803,12.09235 -6.33407,19.50677 1.51446,8.33946 8.51513,10.41784 16.2564,12.07939 11.45533,1.78317 19.32414,0.0245 28.28063,-3.00547 -0.0923,0.41617 -0.13245,0.83101 -0.23491,1.24748 -0.66734,2.41876 -1.25393,4.85805 -2.00472,7.25481 -4.99098,15.93222 -12.63169,31.029 -23.202,44.3342 -2.15068,2.44426 -4.21296,4.96122 -6.45559,7.33032 -3.6416,3.84697 -7.89688,7.66272 -12.06876,11.00444 -2.26263,1.8124 -4.58761,3.46148 -7.05499,4.95039 -2.00146,0.0341 -3.95899,-0.2775 -5.90477,-0.76216 -4.93393,-1.68537 -9.24147,-4.79406 -12.80181,-8.40882 -3.6982,-4.30482 -6.96487,-8.88356 -10.5865,-13.24776 -3.2558,-3.65675 -6.69986,-7.43415 -10.23012,-10.72765 2.79508,-2.61696 6.03904,-4.79717 8.57773,-7.66466 4.54049,-5.18545 9.13266,-10.34719 13.03267,-15.99437 2.08186,-3.1413 3.39569,-4.92463 5.09479,-8.29379 2.95399,-5.8574 4.72863,-12.21949 7.05092,-18.30242 1.1487,-3.67332 1.86149,-5.47943 2.48262,-9.20333 0.6355,-3.81011 0.30621,-7.68242 0.0323,-11.50418 -0.75977,-5.90252 -2.30192,-11.59243 -7.30604,-15.60613 -0.85395,-0.48535 -1.64897,-1.08279 -2.56362,-1.45598 -9.16161,-3.73856 -22.49461,3.05084 -29.85605,5.29192 -3.39472,1.59851 -4.5028,1.91033 -7.53284,4.22418 -4.12657,3.15117 -7.03448,7.23624 -9.65909,11.51137 0.15134,-9.54986 0.1305,-19.10312 -0.0649,-28.65258 -0.0771,-4.1551 -0.16322,-8.31202 -0.19844,-12.46765 -0.008,-0.84798 0.0547,-1.69599 -0.0117,-2.5417 -0.0265,-0.32771 0.0682,-1.06619 -0.25919,-0.95629 -3.6167,1.21454 -7.10729,2.73856 -10.6027,4.24577 -1.18898,0.21668 -2.37999,0.42566 -3.56797,0.6471 -0.0454,0.007 0.12972,0.003 0.13361,0.0467 0.0214,0.25095 0.0175,0.50338 0.0284,0.75495 -0.18971,0.0783 -0.37687,0.16339 -0.567,0.24087 -0.84182,10.83042 -1.42853,21.67112 -1.79411,32.52443 -0.0382,1.89711 -0.0877,3.79372 -0.11336,5.69098 -0.0481,3.53223 -0.10869,8.96651 0.081,12.49641 0.31877,5.91906 1.17402,11.78059 2.08164,17.63733 -0.0244,0.34651 -0.0561,0.69246 -0.081,1.03897 -2.63271,7.09544 -4.67485,14.36749 -5.49979,21.91903 -0.39267,5.75988 -0.60408,6.48271 -0.36451,12.14049 0.0709,1.67342 0.32328,3.33495 0.4617,5.00432 -3.8053,-2.50224 -7.95416,-4.45114 -12.68437,-4.95397 -1.07443,-0.10668 -2.14343,-0.3096 -3.22372,-0.32358 -6.63801,-0.0851 -14.26713,1.93631 -20.61008,3.55191 -13.52316,4.66687 -27.25538,9.039 -39.89579,15.66367 -1.11831,0.52937 -2.22659,1.0759 -3.35334,1.58901 -0.23337,0.10634 -0.33479,0.15769 -0.70469,0.30917 -0.53789,0.0671 -0.98921,0.12915 -1.70502,0.22288 -7.14518,-0.22895 -14.38686,-0.85164 -20.73156,-4.2709 -0.94713,-0.69797 -1.96416,-1.31445 -2.839,-2.09233 -4.41926,-3.92934 -6.25099,-9.36373 -7.10357,-14.89431 -0.65599,-6.82194 -0.50854,-13.76631 0.59131,-20.54212 2.15162,-8.56483 6.59307,-16.24923 11.30737,-23.78846 2.47202,-3.57523 3.50284,-5.31404 6.36242,-8.52387 4.0303,-4.52394 9.1031,-8.15276 13.68066,-12.14049 3.40518,-2.75514 6.81407,-5.53068 10.34755,-8.1464 1.6222,0.53041 3.07972,1.40183 4.32532,2.90839 3.90249,4.92438 7.97096,9.77926 10.70396,15.41559 1.44579,3.45393 3.24066,7.0105 1.66046,10.70966 -1.85284,3.79528 -4.43386,7.27288 -7.13595,10.56225 -3.91253,3.88579 -8.27734,7.2867 -13.07316,10.16683 l 14.93611,-1.28343 h 0.004 c 4.67497,-3.27088 9.16108,-6.65585 12.86255,-10.92178 2.56997,-3.69655 5.43951,-7.28168 7.07118,-11.46102 1.30491,-4.44507 -0.60695,-8.62588 -2.38947,-12.67617 -2.8592,-5.80862 -6.94442,-10.92403 -10.93073,-16.05909 -2.52457,-3.26771 -5.89592,-4.939 -10.01143,-5.64065 -7.04654,-0.31483 -3.65392,-0.3806 -17.38226,5.57595 -1.2076,0.52396 -2.00609,1.65262 -3.0253,2.45899 -4.19939,3.32246 -8.3668,6.67131 -12.53451,10.0302 -4.58577,4.09075 -9.85985,7.71855 -13.72521,12.48563 -2.15928,2.66297 -4.3089,6.12299 -6.15586,8.95168 -4.79852,8.03442 -9.32111,15.62539 -11.29526,24.73036 -0.90846,7.06364 -1.12665,14.268 -0.33209,21.34744 0.97628,6.06268 3.08414,11.94255 7.70296,16.41141 0.94147,0.91093 2.02999,1.67268 3.04555,2.50935 6.41346,4.15029 13.99073,5.25988 21.56179,5.77725 11.77735,-0.31805 22.7544,-5.63964 33.03929,-10.76359 4.85021,-2.61179 9.99405,-4.68492 15.15076,-6.6904 6.90176,-2.0751 14.04298,-3.57325 21.29854,-3.56269 6.18642,0.22861 11.34648,3.05037 16.08631,6.57533 3.80174,3.16258 6.19369,7.39993 8.10794,11.77382 -0.3089,2.82425 -0.56746,5.65323 -0.99628,8.46635 -1.08704,6.92479 -2.02828,13.95598 -4.89231,20.47022 -1.29663,2.78901 -2.31886,5.60897 -3.17109,8.54545 -1.49862,3.40716 -3.14571,6.77835 -5.0462,10.00143 -2.38316,3.81457 -4.73235,7.65961 -7.63817,11.14826 -1.70927,2.04744 -3.45788,4.10261 -5.30944,6.06126 0.0199,-0.45215 0.0608,-0.98806 0.004,-1.25827 -0.1829,-5.00382 -0.64068,-10.0207 -2.23556,-14.826 -1.9513,-4.74984 -4.44283,-8.91912 -9.64288,-10.98648 -5.64921,-2.20618 -11.65223,-3.32393 -17.78322,-3.20319 -11.06155,1.07294 -21.41083,5.0774 -31.54889,9.27882 -6.31031,3.17351 -12.02706,7.28215 -16.7262,12.41013 -5.32475,6.00578 -11.06784,12.53366 -10.53386,20.85131 2.31182,8.09572 6.05022,13.1235 14.45823,16.50848 5.49179,2.11102 11.05689,4.1942 16.98944,4.92524 1.96883,0.24256 4.01842,0.68552 5.94934,0.24804 10.93541,-2.4772 14.78074,-4.28002 22.96307,-7.73295 14.40104,-6.82458 28.4277,-14.43308 40.87589,-24.18751 10.07854,-7.93441 19.67228,-16.49898 26.91985,-26.93054 10.236,2.14128 11.11863,0.8615 13.80214,-3.90064 2.04078,-5.79261 1.8372,-12.01935 2.30844,-18.04358 0.34636,-8.37476 0.20715,-16.77929 -0.64798,-25.12582 -1.87234,-17.44083 -4.2106,-34.83931 -7.0428,-52.16421 -0.23504,-1.55115 -0.32976,-2.6235 -0.5265,-3.90063 2.93909,-7.69393 6.62718,-15.14732 10.56626,-22.60211 4.07424,-7.33216 7.94238,-13.97679 15.13861,-18.34914 0.33016,-0.0795 0.74549,-0.19637 0.96387,-0.23368 4.09985,-0.70082 6.76384,-0.65896 10.60271,0.84483 4.67242,3.07357 5.68,8.171 6.25713,13.18306 0.16439,3.63552 0.51111,7.33188 -0.14589,10.94694 -0.59251,3.26049 -1.44328,5.46788 -2.48665,8.66407 -2.30606,6.00978 -4.09657,12.31745 -7.18052,18.03999 -1.55392,2.88341 -3.25882,5.14829 -5.14339,7.83721 -4.13961,5.42426 -8.57677,10.67067 -13.28376,15.66365 -1.69135,1.54819 -3.5057,2.9666 -5.29731,4.40753 -0.42927,0.34525 -2.45622,1.89654 -2.82281,2.48419 -0.27598,0.44251 -0.30233,0.98766 -0.45358,1.48114 0.15622,0.61967 0.17024,1.28811 0.46981,1.85865 0.70088,1.3349 2.68539,3.05628 3.68542,4.05883 2.49681,2.50305 4.89672,5.07256 7.25341,7.69341 3.65627,4.30678 6.81809,8.9354 10.48931,13.22979 3.69904,4.04337 8.31982,7.29595 13.4093,9.59159 11.06914,3.81279 17.09442,-0.34859 28.76659,-4.26372 0.99648,-0.54433 2.03412,-1.02459 2.98886,-1.63216 2.86929,-1.82599 6.26587,-4.59775 8.73569,-6.71198 4.19007,-3.58679 8.15738,-7.22383 11.84198,-11.29204 2.20118,-2.43035 4.20994,-5.01093 6.31383,-7.51726 10.44799,-13.69648 17.98397,-29.11451 23.08864,-45.26892 0.77576,-2.45495 1.3769,-4.95637 2.06544,-7.43456 0.26349,-1.09313 0.39915,-2.14748 0.5913,-3.21756 5.40328,-2.22375 10.7791,-4.75125 15.38566,-8.27223 2.42482,-1.85341 3.58071,-3.26622 5.42691,-5.35303 1.0772,5.38527 2.55119,10.69585 4.47111,15.86138 2.31519,5.85375 6.04603,11.04411 10.81734,15.3329 3.47755,2.79741 7.45316,4.91999 11.57063,6.74072 11.09137,4.02475 11.2519,1.13432 25.12977,-4.49023 6.31767,-7.43226 9.17022,-16.48726 11.08465,-25.68304 0.65449,-4.43558 0.97862,-8.89718 1.15828,-13.36641 1.68524,1.4164 3.35639,2.85101 5.13531,4.15947 3.66686,2.69577 7.57672,4.90444 12.27127,5.21642 5.19341,-1.88429 10.6119,-3.28499 15.58005,-5.65142 1.77568,-0.84578 4.85897,-7.74673 5.09886,-8.28661 0.12154,-0.27331 0.21013,-0.55287 0.32804,-0.82685 6.19811,-1.89963 12.254,-4.53567 18.30162,-6.48909 1.07782,-0.49439 1.73161,-0.80338 2.64459,-1.21151 0.49306,0.45253 1.00682,0.889 1.49441,1.34454 2.66578,2.11641 5.13416,5.99933 8.86934,6.65444 6.77993,1.18919 17.65385,-7.44585 19.64214,-8.46633 0.94251,-2.00135 2.09027,-3.92651 2.82686,-6.00374 0.50889,-1.43515 0.92346,-3.34606 1.38101,-5.09061 0.13771,0.20281 0.25436,0.41596 0.39283,0.61836 0.26618,0.36779 6.13605,8.85648 7.89331,8.37647 10.69274,-2.92078 13.71971,-2.45495 17.06638,-9.304 2.41427,-7.76993 1.18586,-15.76836 -0.40498,-23.60512 -2.50568,-12.76283 -5.9329,-25.36041 -7.82446,-38.22618 -1.18343,-7.12775 -2.42163,-14.24838 -3.88794,-21.32946 -1.19141,-5.70934 -2.61732,-11.36873 -4.13089,-17.00462 0.83158,-0.24078 1.74372,-0.52195 2.26795,-0.61115 4.1589,-0.70749 8.69106,-1.4348 12.93951,-1.14322 1.33749,0.092 2.64788,0.38756 3.97297,0.58242 1.27061,0.43237 2.59517,0.74198 3.81097,1.29779 9.75378,4.45913 17.10732,12.80718 24.1092,20.33721 4.2473,4.7933 7.86131,10.00383 11.20208,15.38684 1.83819,2.96188 3.98014,6.39586 5.37022,9.59879 0.70666,1.62828 1.20098,3.33497 1.80222,5.00073 0.26844,2.24129 0.77744,4.46729 0.80593,6.72274 0.0892,7.06997 -1.08051,11.67748 -3.33309,18.56486 -2.60779,7.97349 -5.9486,15.49047 -10.0195,22.89687 -2.27946,4.14713 -4.90426,8.1176 -7.35468,12.17647 -1.95923,3.0366 -4.14015,5.91851 -6.24499,8.85459 -44.52356,38.35264 -89.88153,75.82768 -136.48244,111.9176 -17.37887,13.10018 -34.66767,26.3076 -52.10227,39.34065 -28.46886,19.52939 -57.06152,38.89647 -85.78955,58.0817 -3.20241,-12.38885 -9.37238,8.40655 -6.12754,7.57836 5.20344,-1.32805 9.52432,-2.73593 13.39716,-4.2817 0.0251,0.0372 0.0136,0.11878 0.10537,0.079 0.20027,-0.0868 0.34708,-0.25581 0.53866,-0.3559 10.52004,-4.30679 17.65231,-9.77889 29.25664,-18.22694 15.34848,-11.17382 30.51112,-22.57491 45.58595,-34.0775 0.0195,-0.0138 0.0378,-0.0287 0.0567,-0.043 33.93525,-23.51207 67.86863,-47.02488 101.76652,-70.58526 27.16157,-19.61345 54.80508,-38.63093 78.59282,-61.99311 11.94357,-11.7299 22.08894,-24.84668 31.09126,-38.69714 0.46221,-0.77316 0.91797,-1.55023 1.38912,-2.31881 59.25529,-51.42702 117.40116,-103.95967 175.28883,-156.75509 l -9.68336,1.21153 c -15.04278,14.09568 -29.97283,28.29784 -45.12833,42.28501 -37.67649,34.77214 -75.74867,69.19294 -114.38201,103.03422 6.75344,-12.46821 13.63753,-28.56819 13.41741,-42.7955 -0.0378,-2.44996 -0.57138,-4.87001 -0.85857,-7.30516 -0.63736,-1.7694 -1.16392,-3.57762 -1.91562,-5.3063 -1.44967,-3.33383 -3.6036,-6.70654 -5.52815,-9.79292 -3.43623,-5.51056 -7.0892,-10.88495 -11.44914,-15.79667 -7.26827,-7.84969 -14.72657,-16.29947 -24.46963,-21.53437 -1.29227,-0.69434 -2.71011,-1.15045 -4.06613,-1.72562 -1.41009,-0.3295 -2.79617,-0.78248 -4.23218,-0.98865 -3.10635,-0.44598 -5.35741,-0.17048 -8.4603,0.14749 -7.1887,0.73692 -13.8021,2.1275 -20.50069,4.25296 -1.92948,-6.8125 -4.10596,-13.55988 -6.3179,-20.29767 -2.94554,-16.74992 -7.28757,-33.24988 -12.04854,-49.61174 -0.24347,-0.84052 -1.86964,-6.48734 -2.31249,-7.86598 -0.73795,-2.29733 -1.29138,-3.46937 -2.38135,-3.72088 z m 24.68832,85.32499 c -0.179,0.0635 -0.35474,0.13279 -0.53053,0.20131 -0.002,-0.009 -0.002,-0.0173 -0.004,-0.0251 0.17725,-0.0638 0.3566,-0.11429 0.53459,-0.17615 z m -16.92866,18.69428 c 0.57956,10.96465 0.65673,21.94436 0.29158,32.91989 -1.02934,-3.11185 -2.4624,-6.06216 -4.32938,-8.77912 -0.60624,-5.85859 -0.13751,-11.76512 1.56329,-17.57981 0.74551,-2.54858 1.57012,-4.56059 2.47451,-6.56096 z m -33.74398,20.52415 c 4.50327,1.60656 8.90394,3.42217 12.96787,5.94262 0.79342,0.71005 1.69326,1.32938 2.38135,2.13188 0.28231,0.32925 0.4488,0.72511 0.70871,1.06771 0.42057,2.90607 1.0204,5.79687 2.00473,8.64611 1.50538,3.8574 3.10836,7.67516 4.80321,11.45024 0.4237,4.89043 1.29679,9.8768 0.2754,14.75051 -0.65149,3.10893 -1.36288,4.43321 -2.58386,7.39142 -2.1623,3.62132 -4.65913,7.11933 -7.52879,10.30703 -4.73167,-3.75423 -9.77559,-7.13029 -15.45048,-9.50173 -1.21876,-0.41264 -2.03638,-0.68024 -2.99289,-1.0138 3.08955,-16.67734 5.12547,-33.52325 5.43904,-50.45658 -0.0136,-0.20655 -0.0136,-0.50221 -0.0244,-0.71541 z m 47.36791,19.10771 c 1.76056,7.87838 3.56587,15.74789 5.05837,23.68061 0.58122,4.19152 1.40353,8.58221 1.47011,12.92062 -3.17562,-4.50391 -6.06434,-9.15584 -8.76403,-13.90207 0.9739,-7.54482 1.68519,-15.11319 2.23555,-22.69916 z m -17.97357,37.93499 c -0.95104,4.51827 -2.10365,9.2551 -3.76641,13.13274 -0.25706,0.59943 -0.66695,1.13014 -0.99628,1.69685 -0.98014,-0.9231 -2.03759,-1.94985 -2.62438,-2.42305 -0.84767,-0.7962 -1.73513,-1.5656 -2.60002,-2.35117 3.84958,-2.85354 7.13528,-6.30125 9.98709,-10.05537 z m -55.36651,0.19055 c 2.69045,-0.0909 4.40651,0.15077 6.11134,0.55723 -0.14784,0.73641 -0.26088,1.47902 -0.41308,2.21456 -1.21828,4.93234 -2.44686,9.86534 -4.02564,14.69297 -1.54137,-0.55007 -3.0636,-1.13504 -4.61691,-1.91975 -3.55046,-2.33128 -4.97313,-5.59324 -3.87983,-9.59162 0.26278,-0.96067 0.51283,-1.95819 1.06109,-2.80412 0.58597,-0.90405 1.51424,-1.56259 2.272,-2.34398 -0.13167,0.003 -0.0705,-0.051 -0.12154,-0.0719 1.20653,-0.29519 2.77772,-0.70518 3.61254,-0.73339 z m 18.10316,5.32066 c 3.78211,2.17002 7.28016,4.76362 10.59866,7.56401 -4.17336,2.49511 -7.73165,3.91309 -12.68437,5.97856 -2.42738,0.79796 -0.63412,0.20657 -1.95611,0.64712 0.0818,-0.22858 0.17939,-0.45411 0.25919,-0.68308 0.23207,-0.14731 0.84615,-0.38125 0.87073,-0.47812 0.11959,-0.47117 -0.10382,-0.64567 -0.51028,-0.6651 1.36077,-4.05802 2.41296,-8.20222 3.42218,-12.36339 z m -223.11438,8.24705 c -1.37957,0.5157 -2.74433,1.06243 -4.13902,1.54589 0.10635,-0.0496 0.19605,-0.10944 0.30374,-0.1582 1.23493,-0.55875 2.55657,-0.92557 3.83528,-1.3877 z m 263.72298,2.78258 c 0.91378,-0.0622 -1.43425,1.1838 -2.32465,1.3877 -0.78466,0.17967 -1.6634,-0.12742 -2.55955,-0.61836 1.61435,-0.34796 3.23624,-0.65725 4.8842,-0.76934 z m -203.65855,3.18164 c 7.07899,0.44107 8.92881,1.49977 13.43765,6.95282 1.6523,2.41651 3.21922,4.5022 4.42657,7.1829 2.30451,5.11706 2.75682,10.37621 2.16265,15.68523 -5.4085,1.18246 -10.96314,1.3178 -16.47104,0.62195 -4.79512,-0.7736 -11.96467,-1.48493 -14.10184,-6.47828 -0.31683,-0.74005 -0.3655,-1.55705 -0.54672,-2.33679 -0.0495,-6.78254 2.0951,-12.39012 6.68238,-17.65532 0.88661,-0.96015 1.69675,-1.98875 2.6608,-2.87962 0.32804,-0.30319 1.02213,-0.70504 1.64427,-1.08572 0.0392,-0.002 0.0658,-0.005 0.10537,-0.007 z m -187.59249,1.33735 c 0.0828,0.003 0.1566,0.0178 0.23893,0.0216 -1.93239,0.72252 -2.75067,1.07019 -0.23893,-0.0216 z m 318.8708,2.35116 c 3.38878,1.76215 6.82619,3.21254 10.88214,3.46562 0.25221,0.0156 0.49787,-0.0138 0.74923,-0.003 -0.19244,0.38858 -0.33222,0.7937 -0.53459,1.17918 -0.38994,0.74275 -0.92486,1.40707 -1.36888,2.12466 -1.28389,-0.66708 -2.54837,-1.3511 -3.87172,-2.20016 -2.01046,-1.45277 -3.95209,-2.99146 -5.85618,-4.56572 z m 117.9257,15.85778 c -9.4006,11.12065 -19.71276,21.54219 -30.9536,31.09721 -20.49411,17.42051 -36.75687,28.60131 -58.9426,44.81591 -3.81584,2.68801 -7.68122,5.31335 -11.50176,7.9954 19.00722,-15.2504 38.06431,-30.44288 56.77183,-46.02027 15.00294,-12.49263 29.8412,-25.16401 44.62613,-37.88825 z m -434.808,74.66565 c 0.9985,-0.30052 -1.91517,0.81853 -2.90783,1.13604 -0.96733,0.30946 -1.63952,0.44257 -2.34086,0.5788 1.7379,-0.60527 3.48513,-1.18397 5.24869,-1.71484 z m 7.65841,49.45714 c 4.3194,0.0875 8.58256,0.92507 12.68032,2.27567 4.87033,1.71064 6.82623,4.54706 8.66684,8.95889 1.48309,4.52256 1.79154,9.25389 1.87107,13.95599 -0.24383,3.16436 0.54674,5.74444 3.52344,7.36625 -8.92819,5.85117 -18.4654,10.81342 -28.21989,15.35087 0.0941,-0.70503 -4.07077,0.6807 -5.75899,0.60756 -5.74768,-0.24898 -11.10994,-2.16506 -16.40623,-4.08037 -7.73884,-3.01513 -11.20041,-6.75845 -13.19062,-14.31551 0.36299,-7.42893 6.17014,-13.04096 11.07249,-18.33117 4.33345,-4.42166 9.44113,-7.76957 15.06572,-10.44362 0.26916,-0.0752 0.35192,-0.10149 0.53055,-0.14385 2.56115,-0.60738 3.21455,-0.64331 5.83189,-1.02817 1.44774,-0.14628 2.89362,-0.20171 4.33341,-0.17256 z" />
  </g>
</svg>
