<?xml version="1.0" encoding="UTF-8" standalone="no"?>
<!-- Created with Inkscape (http://www.inkscape.org/) -->

<svg
   width="20.5in"
   height="11.5in"
   viewBox="0 0 20.5 11.5"
   version="1.1"
   id="svg5"
   inkscape:version="1.1 (c68e22c387, 2021-05-23)"
   sodipodi:docname="email.svg"
   xmlns:inkscape="http://www.inkscape.org/namespaces/inkscape"
   xmlns:sodipodi="http://sodipodi.sourceforge.net/DTD/sodipodi-0.dtd"
   xmlns="http://www.w3.org/2000/svg"
   xmlns:svg="http://www.w3.org/2000/svg">
  <sodipodi:namedview
     id="namedview7"
     pagecolor="#ffffff"
     bordercolor="#999999"
     borderopacity="1"
     inkscape:pageshadow="0"
     inkscape:pageopacity="0"
     inkscape:pagecheckerboard="0"
     inkscape:document-units="in"
     showgrid="false"
     units="in"
     inkscape:zoom="0.38395763"
     inkscape:cx="892.0255"
     inkscape:cy="545.63312"
     inkscape:window-width="1920"
     inkscape:window-height="1051"
     inkscape:window-x="-9"
     inkscape:window-y="-9"
     inkscape:window-maximized="1"
     inkscape:current-layer="layer1"
     inkscape:snap-text-baseline="false"
     inkscape:lockguides="false" />
  <defs
     id="defs2">
    <inkscape:path-effect
       effect="line_segment"
       id="path-effect10780"
       is_visible="true"
       lpeversion="1"
       end_type="open_both" />
  </defs>
  <g
     inkscape:label="Layer 1"
     inkscape:groupmode="layer"
     id="layer1"
     style="opacity:1">
    <path
       id="text165"
       style="font-style:normal;font-variant:normal;font-weight:normal;font-stretch:normal;font-size:1.16875px;line-height:1.25;font-family:Constantia;-inkscape-font-specification:'Constantia, Normal';font-variant-ligatures:normal;font-variant-caps:normal;font-variant-numeric:normal;font-variant-east-asian:normal;fill:#000000;fill-opacity:1;stroke:none;stroke-width:0.0121746"
       d="m 13.497149,2.1065167 v 0.5522056 h 0.07747 v -0.050517 c 0.0085,0.016091 0.02007,0.029038 0.03493,0.038737 0.01823,0.011646 0.03963,0.017476 0.06419,0.017476 0.02861,0 0.05316,-0.00621 0.07367,-0.018616 0.02051,-0.012659 0.03608,-0.030888 0.04671,-0.054687 0.01063,-0.023799 0.01595,-0.052416 0.01595,-0.085836 v -0.085815 c 0,-0.033927 -0.0052,-0.062923 -0.01556,-0.086975 -0.01038,-0.024052 -0.02557,-0.042282 -0.04557,-0.054687 -0.01975,-0.012659 -0.04354,-0.018982 -0.07139,-0.018982 -0.02355,0 -0.04495,0.00632 -0.06419,0.018982 -0.01522,0.00981 -0.02811,0.023005 -0.03874,0.039469 V 2.1065167 Z m 0.826396,0 v 0.077474 h 0.07747 v -0.077474 z m 0.205445,0.043294 v 0.1147055 h -0.04063 v 0.069865 h 0.04063 V 2.556183 c 0,0.034433 0.0073,0.060504 0.02203,0.078227 0.01494,0.01747 0.03835,0.026204 0.07025,0.026204 h 0.04482 V 2.586945 h -0.03721 c -0.0073,0 -0.01293,-0.00255 -0.01672,-0.00761 -0.0038,-0.00532 -0.0057,-0.012779 -0.0057,-0.0224 V 2.3343814 h 0.05963 V 2.2645164 H 14.60646 V 2.149811 Z m -1.294271,0.1090089 c -0.03494,0 -0.06481,0.00722 -0.08962,0.021647 -0.02481,0.014432 -0.0438,0.035432 -0.05697,0.063029 -0.01291,0.027597 -0.01937,0.060904 -0.01937,0.099894 v 0.044434 c 0,0.037471 0.0067,0.069485 0.02012,0.096069 0.01367,0.026331 0.03342,0.046346 0.05924,0.060018 0.02582,0.013672 0.05697,0.020508 0.09342,0.020508 0.02456,0 0.049,-0.00507 0.0733,-0.015198 0.02431,-0.01038 0.0462,-0.024945 0.06569,-0.043681 l -0.05088,-0.050883 c -0.01215,0.011393 -0.02596,0.020261 -0.0414,0.026591 -0.01544,0.00633 -0.03102,0.00948 -0.04671,0.00948 -0.03165,0 -0.05607,-0.00873 -0.07328,-0.026204 -0.0166,-0.016842 -0.02512,-0.040815 -0.02572,-0.071777 h 0.248251 v -0.025818 c 0,-0.043547 -0.0062,-0.080899 -0.01859,-0.1120403 -0.01215,-0.031141 -0.02989,-0.054934 -0.05318,-0.071391 -0.02329,-0.016457 -0.05139,-0.024679 -0.08431,-0.024679 z m 0.827535,0 c -0.03393,0 -0.06216,0.00467 -0.0847,0.014038 -0.02253,0.00911 -0.03949,0.02292 -0.05088,0.041402 -0.01139,0.018483 -0.01709,0.041649 -0.01709,0.069499 0,0.02785 0.0058,0.049251 0.01748,0.064189 0.0119,0.014938 0.02671,0.025192 0.04443,0.030762 0.01772,0.00532 0.03937,0.00898 0.06494,0.011007 10e-4,0 0.002,1.335e-4 0.003,3.866e-4 h 0.003 c 0.002,2.532e-4 0.0042,4.996e-4 0.0065,7.528e-4 h 0.0064 c 0.02253,0.00177 0.04,0.0038 0.05241,0.00608 0.01241,0.00203 0.02279,0.0062 0.03115,0.012533 0.0084,0.00633 0.01253,0.015824 0.01253,0.028483 0,0.018989 -0.0077,0.033287 -0.02317,0.042908 -0.01519,0.00937 -0.03811,0.014058 -0.06875,0.014058 -0.02051,0 -0.04126,-0.00406 -0.06228,-0.012166 -0.02101,-0.0081 -0.04215,-0.020255 -0.06342,-0.036458 l -0.04596,0.0566 c 0.01494,0.013672 0.03127,0.025065 0.04899,0.03418 0.01772,0.00911 0.03671,0.015951 0.05696,0.020508 0.02051,0.00456 0.0424,0.00684 0.0657,0.00684 0.03696,0 0.06761,-0.00469 0.09192,-0.014058 0.02456,-0.00937 0.0429,-0.023286 0.05505,-0.041768 0.01215,-0.018736 0.01823,-0.042282 0.01823,-0.070638 0,-0.031141 -0.0066,-0.054954 -0.01973,-0.071411 -0.01317,-0.016457 -0.0295,-0.02747 -0.04899,-0.03304 -0.01924,-0.00557 -0.04267,-0.00923 -0.07027,-0.011007 -7.59e-4,-2.532e-4 -0.0015,-3.866e-4 -0.0023,-3.866e-4 h -0.0023 c -0.0018,-2.532e-4 -0.0035,-3.662e-4 -0.0053,-3.662e-4 -0.0015,0 -0.003,-1.333e-4 -0.0046,-3.866e-4 -0.02101,-0.00127 -0.03721,-0.00278 -0.0486,-0.00456 -0.01139,-0.00177 -0.02089,-0.00532 -0.02848,-0.01064 -0.0073,-0.00532 -0.01103,-0.013292 -0.01103,-0.023926 0,-0.017976 0.0066,-0.031381 0.01975,-0.040242 0.01316,-0.00911 0.03291,-0.013672 0.05924,-0.013672 0.01823,0 0.03684,0.00315 0.05583,0.00948 0.01924,0.00633 0.03874,0.015824 0.05849,0.028483 l 0.04671,-0.05658 c -0.0157,-0.011393 -0.03203,-0.020754 -0.04899,-0.028097 -0.01696,-0.0076 -0.03481,-0.013292 -0.05355,-0.01709 -0.01848,-0.0038 -0.03798,-0.0057 -0.05849,-0.0057 z m 0.864746,0 c -0.03494,0 -0.06481,0.00722 -0.08962,0.021647 -0.02481,0.014432 -0.0438,0.035432 -0.05697,0.063029 -0.01291,0.027597 -0.01937,0.060904 -0.01937,0.099894 v 0.044434 c 0,0.037471 0.0067,0.069485 0.02012,0.096069 0.01367,0.026331 0.03342,0.046346 0.05924,0.060018 0.02583,0.013672 0.05697,0.020508 0.09342,0.020508 0.02456,0 0.049,-0.00507 0.0733,-0.015198 0.02431,-0.01038 0.0462,-0.024945 0.06569,-0.043681 l -0.05088,-0.050883 c -0.01215,0.011393 -0.02596,0.020261 -0.0414,0.026591 -0.01544,0.00633 -0.03102,0.00948 -0.04671,0.00948 -0.03165,0 -0.05609,-0.00873 -0.0733,-0.026204 -0.0166,-0.016842 -0.0251,-0.040815 -0.0257,-0.071777 h 0.24825 v -0.025818 c 0,-0.043547 -0.0062,-0.080899 -0.01862,-0.1120403 -0.01215,-0.031141 -0.02987,-0.054934 -0.05316,-0.071391 -0.02329,-0.016457 -0.0514,-0.024679 -0.08431,-0.024679 z m -2.474997,0.0057 0.121542,0.3942058 h 0.05847 l 0.09609,-0.2722982 0.09609,0.2722982 h 0.05847 L 13.00421,2.2645165 H 12.92332 L 12.85343,2.5459294 12.75506,2.2645165 H 12.70114 L 12.60277,2.5459294 12.53289,2.2645165 Z m 1.871542,0 v 0.3942058 h 0.07747 V 2.2645165 Z m -1.088826,0.064168 c 0.02405,0 0.04317,0.009 0.05735,0.026978 0.01443,0.017723 0.02279,0.042655 0.02507,0.074809 H 13.1427 c 0.0012,-0.030955 0.0091,-0.055313 0.02366,-0.072917 0.0162,-0.019242 0.03899,-0.02887 0.06836,-0.02887 z m 0.417378,0 c 0.02557,0 0.04532,0.00798 0.05925,0.023926 0.01418,0.01595 0.02126,0.038357 0.02126,0.06722 v 0.085449 c 0,0.028357 -0.0071,0.050383 -0.02126,0.066081 -0.01393,0.015444 -0.03367,0.023173 -0.05925,0.023173 -0.01646,0 -0.03051,-0.00317 -0.04215,-0.0095 -0.01139,-0.00633 -0.02013,-0.015444 -0.0262,-0.027344 -0.0061,-0.0119 -0.0091,-0.026331 -0.0091,-0.043294 V 2.4069319 c 0,-0.016457 0.003,-0.030508 0.0091,-0.042155 0.0061,-0.0119 0.01481,-0.020901 0.0262,-0.026977 0.01165,-0.00608 0.0257,-0.00911 0.04215,-0.00911 z m 1.274903,0 c 0.02405,0 0.04317,0.009 0.05735,0.026978 0.01443,0.017723 0.02279,0.042655 0.02507,0.074809 h -0.17446 c 0.0012,-0.030955 0.0091,-0.055313 0.02368,-0.072917 0.01621,-0.019242 0.03899,-0.02887 0.06836,-0.02887 z m 0.218181,0.1265666 v 0.06781 h 3.737122 V 5.561596 8.9528121 h -7.867617 v 0.033915 h 7.867617 v 0.00677 h 0.04069 V 5.561596 h -0.0068 V 2.4939477 h -0.0068 v -0.038696 z m -5.2903056,0.00677 v 2.5027271 h 0.04069 v -2.502725 z m 0.040711,0 v 0.05426 h 2.4755866 v -0.05426 z m -8.066328,2.5543853 c -0.056687,0.014077 -0.1186951,0.027592 -0.1860353,0.040527 l 0.00285,0.018819 0.077047,0.022827 c 0.00152,0.029675 0.00228,0.1432434 0.00228,0.3406984 V 5.673839 c 0,0.052883 -3.783e-4,0.1008077 -0.00114,0.1437989 -7.609e-4,0.00875 -0.00494,0.014467 -0.012553,0.01713 l -0.067342,0.019959 0.00228,0.023397 c 0.050981,-0.00114 0.095101,-0.00171 0.1323852,-0.00171 0.037284,0 0.078756,5.676e-4 0.1244101,0.00171 l -0.00114,-0.023397 -0.055359,-0.016541 c -0.00913,-0.00228 -0.014071,-0.00895 -0.014832,-0.019979 -7.609e-4,-0.054024 -0.00114,-0.1091797 -0.00114,-0.1654867 V 5.2794914 c 0,-0.1167989 0.00114,-0.2029785 0.00342,-0.2585247 z m 3.5724499,0 c -0.056687,0.014077 -0.1186951,0.027592 -0.1860353,0.040527 l 0.00285,0.018819 0.077047,0.022827 c 0.00152,0.029675 0.00228,0.1432434 0.00228,0.3406984 V 5.673839 c 0,0.052883 -3.783e-4,0.1008077 -0.00114,0.1437989 -7.609e-4,0.00875 -0.00494,0.014467 -0.012553,0.01713 l -0.067342,0.019959 0.00228,0.023397 c 0.050981,-0.00114 0.095101,-0.00171 0.1323852,-0.00171 0.037284,0 0.078756,5.676e-4 0.12441,0.00171 l -0.00114,-0.023397 -0.055359,-0.016541 c -0.00913,-0.00228 -0.014071,-0.00895 -0.014832,-0.019979 -7.608e-4,-0.054024 -0.00114,-0.1091797 -0.00114,-0.1654867 V 5.2794914 c 0,-0.1167989 0.00114,-0.2029785 0.00342,-0.2585247 z m 1.8769537,0 c -0.062014,0.014838 -0.1240215,0.028353 -0.1860352,0.040527 l 0.00285,0.018819 0.077047,0.022827 c 0.00114,0.030056 0.00171,0.074953 0.00171,0.1346842 3.804e-4,0.059731 5.695e-4,0.1284017 5.695e-4,0.2060142 v 0.2385458 c 0,0.056687 -3.783e-4,0.1032877 -0.00114,0.1398112 -3.806e-4,0.00913 -0.00551,0.015226 -0.015401,0.01827 l -0.064494,0.018819 0.00228,0.023397 c 0.050981,-0.00114 0.095121,-0.00171 0.1324055,-0.00171 0.037284,0 0.079891,5.676e-4 0.1278281,0.00171 l -0.00114,-0.023397 -0.059346,-0.01711 c -0.00913,-0.00266 -0.013882,-0.00933 -0.014262,-0.019979 -7.61e-4,-0.039187 -0.00116,-0.082361 -0.00116,-0.1295371 V 5.4318556 c 0.04185,-0.018262 0.081618,-0.027384 0.119283,-0.027384 0.043752,0 0.076858,0.010278 0.099304,0.030823 0.022447,0.020164 0.033671,0.053628 0.033671,0.1004232 v 0.2488201 c 0,0.018642 -1.893e-4,0.030623 -5.697e-4,0.03595 -7.609e-4,0.00875 -0.00572,0.014657 -0.014852,0.0177 l -0.056498,0.016541 0.00228,0.023397 c 0.045654,-0.00114 0.087126,-0.00171 0.1244101,-0.00171 0.037284,0 0.081047,5.676e-4 0.1312663,0.00171 l -0.00114,-0.023397 -0.063924,-0.019389 c -0.00913,-0.00342 -0.013882,-0.010087 -0.014262,-0.019979 -7.609e-4,-0.026632 -0.00114,-0.061818 -0.00114,-0.1055704 V 5.5083326 c 0,-0.057068 -0.015597,-0.1002421 -0.046794,-0.1295369 -0.031197,-0.029675 -0.073236,-0.044515 -0.126119,-0.044515 -0.057068,0 -0.1187174,0.021293 -0.1849162,0.063904 V 5.173921 c 3.804e-4,-0.066199 0.00154,-0.1171916 0.00344,-0.1529543 z m 3.067974,5.696e-4 c -0.07609,0.017881 -0.164541,0.034424 -0.265361,0.049642 l -5.69e-4,0.024557 0.09473,0.013692 -0.15922,0.7744143 0.15922,-0.00572 0.122132,-0.593506 c 0.01141,-0.052883 0.02188,-0.1015849 0.03139,-0.1460979 0.0095,-0.044893 0.01769,-0.081594 0.02454,-0.1101278 z m 2.468751,0 c -0.07609,0.017881 -0.164541,0.034424 -0.265361,0.049642 l -5.7e-4,0.024557 0.09473,0.013692 -0.159219,0.7744143 0.159219,-0.00572 0.122133,-0.593506 c 0.01141,-0.052883 0.02188,-0.1015849 0.03139,-0.1460979 0.0095,-0.044893 0.01769,-0.081594 0.02454,-0.1101278 z m 2.08014,0 c -0.07571,0.017501 -0.164181,0.034043 -0.265381,0.049642 l -5.7e-4,0.024557 0.09475,0.013692 -0.04909,0.2391155 c -0.02739,-0.00418 -0.05325,-0.00629 -0.0776,-0.00629 -0.09968,0 -0.182243,0.033105 -0.24768,0.099304 -0.06506,0.066199 -0.0976,0.1474182 -0.0976,0.2436727 0,0.061253 0.01713,0.111847 0.05137,0.1517945 0.03424,0.039567 0.07723,0.059367 0.128967,0.059367 0.0312,0 0.08198,-0.030247 0.152364,-0.090739 v 0.011414 c 0,0.023969 0.008,0.042423 0.02399,0.055359 0.01598,0.012555 0.03822,0.018819 0.06675,0.018819 0.03386,0 0.0841,-0.00799 0.150675,-0.023966 l 0.004,-0.026815 c -0.01636,0 -0.03025,-3.785e-4 -0.04167,-0.00114 -0.01103,-7.608e-4 -0.02016,-0.00248 -0.02739,-0.00515 -0.0068,-0.00304 -0.01198,-0.00685 -0.0154,-0.011414 -0.003,-0.00495 -0.0046,-0.011399 -0.0046,-0.019389 0,-0.00571 9.46e-4,-0.012937 0.0028,-0.021688 l 0.03597,-0.17806 0.06618,-0.3190105 c 0.0057,-0.026251 0.01104,-0.051748 0.01599,-0.076477 0.0053,-0.024729 0.01027,-0.047935 0.01483,-0.069621 0.0049,-0.022066 0.0095,-0.042224 0.01369,-0.060486 0.0042,-0.018642 0.008,-0.035185 0.01141,-0.049642 z m 0.679097,0 c -0.07571,0.017501 -0.164161,0.034043 -0.265361,0.049642 l -5.69e-4,0.024557 0.09473,0.013692 -0.04907,0.2391155 c -0.02739,-0.00418 -0.05327,-0.00629 -0.07762,-0.00629 -0.09968,0 -0.182244,0.033105 -0.247681,0.099304 -0.06506,0.066199 -0.09758,0.1474182 -0.09758,0.2436727 0,0.061253 0.01711,0.111847 0.05135,0.1517945 0.03424,0.039567 0.07725,0.059367 0.128987,0.059367 0.0312,0 0.08198,-0.030247 0.152365,-0.090739 v 0.011414 c 0,0.023969 0.008,0.042423 0.02397,0.055359 0.01598,0.012555 0.03824,0.018819 0.06677,0.018819 0.03386,0 0.08408,-0.00799 0.150655,-0.023966 l 0.004,-0.026815 c -0.01636,0 -0.03023,-3.785e-4 -0.04165,-0.00114 -0.01103,-7.608e-4 -0.02018,-0.00248 -0.02741,-0.00515 -0.0068,-0.00304 -0.01198,-0.00685 -0.0154,-0.011414 -0.003,-0.00495 -0.0046,-0.011399 -0.0046,-0.019389 0,-0.00571 9.46e-4,-0.012937 0.0028,-0.021688 l 0.03595,-0.17806 0.0662,-0.3190105 c 0.0057,-0.026251 0.01103,-0.051748 0.01597,-0.076477 0.0053,-0.024729 0.01029,-0.047935 0.01485,-0.069621 0.0049,-0.022066 0.0095,-0.042224 0.01369,-0.060486 0.0042,-0.018642 0.008,-0.035185 0.01141,-0.049642 z M 5.0182039,5.0694898 c -0.020544,0 -0.037087,0.00608 -0.049642,0.018249 -0.012555,0.011794 -0.01884,0.027958 -0.01884,0.048503 0,0.019403 0.00591,0.03502 0.0177,0.046814 0.012175,0.011794 0.027771,0.01768 0.046794,0.01768 0.019784,0 0.035948,-0.00628 0.048503,-0.01884 0.012555,-0.012935 0.018839,-0.029478 0.018839,-0.049642 0,-0.020164 -0.00591,-0.035571 -0.0177,-0.046224 -0.011794,-0.011033 -0.027012,-0.01654 -0.045654,-0.01654 z m 1.40387,0 c -0.020544,0 -0.037087,0.00608 -0.049642,0.018249 -0.012555,0.011794 -0.01884,0.027958 -0.01884,0.048503 0,0.019403 0.00591,0.03502 0.0177,0.046814 0.012175,0.011794 0.027771,0.01768 0.046794,0.01768 0.019784,0 0.035948,-0.00628 0.048503,-0.01884 0.012555,-0.012935 0.01884,-0.029478 0.01884,-0.049642 0,-0.020164 -0.00591,-0.035571 -0.0177,-0.046224 -0.011794,-0.011033 -0.027012,-0.01654 -0.045654,-0.01654 z m 3.103354,0.115275 c -0.1403871,0 -0.255658,0.045087 -0.3458254,0.135254 -0.089787,0.089787 -0.1346843,0.2033346 -0.1346843,0.340678 0,0.124408 0.039769,0.2258057 0.1192831,0.304179 0.079515,0.078373 0.1839397,0.1175537 0.3132936,0.1175537 0.1533224,0 0.2874269,-0.057635 0.4023235,-0.1729127 l -0.024536,-0.027384 c -0.10082,0.094733 -0.217037,0.1420899 -0.3486736,0.1420899 -0.1129944,0 -0.2041138,-0.035187 -0.2733563,-0.1055705 -0.068862,-0.070003 -0.1032918,-0.1613119 -0.1032918,-0.2739259 0,-0.1228862 0.036133,-0.2233175 0.1084188,-0.3013103 0.072667,-0.077993 0.1677796,-0.1170044 0.2853395,-0.1170044 0.090928,0 0.1666403,0.028733 0.2271322,0.086182 0.060872,0.057448 0.091309,0.1331603 0.091309,0.2271321 0,0.065818 -0.018644,0.125346 -0.055929,0.1786094 -0.037284,0.052883 -0.078756,0.079325 -0.1244101,0.079325 -0.012555,0 -0.022056,-0.00284 -0.028524,-0.00854 -0.00647,-0.00609 -0.0097,-0.015987 -0.0097,-0.029683 0,-0.00723 0.00114,-0.016351 0.00342,-0.027384 l 0.03595,-0.176351 c 0.015218,-0.074949 0.028544,-0.1314494 0.039958,-0.1694948 l -0.00686,-0.00399 c -0.020164,0.00723 -0.039187,0.012547 -0.057068,0.015971 -0.039947,-0.012175 -0.074945,-0.01825 -0.1050008,-0.01825 -0.079895,0 -0.1460856,0.02949 -0.1985881,0.08846 -0.052502,0.05897 -0.078756,0.1312561 -0.078756,0.216858 0,0.048317 0.01236,0.088255 0.037089,0.1198323 0.02511,0.031197 0.058783,0.046794 0.1010133,0.046794 0.013316,0 0.030804,-0.00647 0.05249,-0.019409 0.022066,-0.013316 0.05061,-0.034041 0.085612,-0.062195 0.00114,0.027012 0.00989,0.047549 0.026245,0.061625 0.01636,0.014077 0.038619,0.021118 0.066772,0.021118 0.070764,0 0.1344951,-0.032707 0.1911825,-0.098145 C 9.873744,5.6894386 9.902078,5.615808 9.902078,5.5340107 9.902078,5.4312884 9.865945,5.3473997 9.7936592,5.2823422 9.7213732,5.2172852 9.6319567,5.1847672 9.52543,5.1847672 Z m -6.4771953,0.01654 c -0.017501,0.00533 -0.036902,0.010854 -0.058207,0.016561 l -0.039388,0.1381022 -0.087891,0.00741 0.00344,0.023397 0.078756,0.019409 c -0.00266,0.1594096 -0.00401,0.2760255 -0.00401,0.3498333 0,0.044893 0.010089,0.078566 0.030253,0.1010132 0.020164,0.022066 0.050978,0.033101 0.092448,0.033101 0.051742,0 0.1105123,-0.016563 0.1763306,-0.049662 l -0.00342,-0.025676 c -0.04223,0.00685 -0.076471,0.010274 -0.1027223,0.010274 -0.033099,0 -0.055548,-0.00742 -0.067342,-0.022258 -0.011794,-0.015218 -0.01768,-0.042607 -0.01768,-0.082174 0,-0.078754 0.00114,-0.1824422 0.00342,-0.3110352 H 3.2239935 V 5.3553988 H 3.0522202 v -0.021118 c 0,-0.039948 5.677e-4,-0.082933 0.00171,-0.1289673 z m 8.6001204,0 -0.09416,0.016561 -0.08445,0.1403809 -0.100444,0.00913 -0.0017,0.024536 0.08104,0.021118 c -0.01826,0.078373 -0.03348,0.1449422 -0.04565,0.1997273 -0.01179,0.054785 -0.02113,0.1002504 -0.02797,0.1363933 -0.0023,0.013696 -0.0034,0.026245 -0.0034,0.037659 0,0.034621 0.01179,0.060685 0.03538,0.078186 0.02359,0.017501 0.05669,0.026265 0.0993,0.026265 0.06239,0 0.128774,-0.017131 0.199159,-0.051371 l -0.0057,-0.037089 c -0.04299,0.011794 -0.07761,0.01768 -0.103862,0.01768 -0.0194,0 -0.03443,-0.00437 -0.04508,-0.013123 -0.01065,-0.00875 -0.01599,-0.023968 -0.01599,-0.045654 0,-0.012555 0.0017,-0.027395 0.0051,-0.044515 0.01027,-0.0506 0.02091,-0.1008159 0.03194,-0.1506552 0.01141,-0.05022 0.02264,-0.099679 0.03367,-0.1483765 h 0.162658 l 0.01141,-0.059916 h -0.16036 c 0.0065,-0.030056 0.01845,-0.081028 0.03595,-0.1529338 z m 4.51579,0.1324057 c -0.04604,0.013696 -0.09722,0.028347 -0.153524,0.043945 -0.0019,0.060873 -0.01121,0.1205892 -0.02795,0.1791789 -0.01636,0.058209 -0.03938,0.1162436 -0.06905,0.1740724 l -0.01084,-0.061646 c -0.0068,-0.031578 -0.01484,-0.062581 -0.02397,-0.093018 -0.0088,-0.030436 -0.0175,-0.058581 -0.02624,-0.084452 -0.0088,-0.026251 -0.01733,-0.049268 -0.0257,-0.069051 -0.0084,-0.019783 -0.01541,-0.034813 -0.02112,-0.045085 -0.0076,-0.013696 -0.0194,-0.023596 -0.03538,-0.029683 -0.01598,-0.00609 -0.03422,-0.00913 -0.05477,-0.00913 -0.03614,0 -0.08676,0.00876 -0.151815,0.026265 l -0.0034,0.026245 c 0.01141,3.806e-4 0.02207,9.482e-4 0.03196,0.00171 0.01027,3.804e-4 0.01958,0.0017 0.02795,0.00399 0.0088,0.0019 0.01674,0.00533 0.02397,0.010274 0.0072,0.00457 0.01389,0.011418 0.01998,0.020548 0.0057,0.00875 0.01256,0.023022 0.02055,0.042806 0.008,0.019403 0.01636,0.042041 0.02511,0.067912 0.0088,0.025871 0.0175,0.054016 0.02624,0.084452 0.0088,0.030056 0.01693,0.059924 0.02454,0.0896 0.0076,0.029675 0.01427,0.058199 0.01998,0.085592 0.0057,0.027393 0.0099,0.051375 0.01255,0.07192 l 0.03196,0.00741 c -0.02397,0.036524 -0.04488,0.06696 -0.06276,0.091309 -0.0175,0.024729 -0.03291,0.045097 -0.04622,0.061076 -0.01294,0.015979 -0.02435,0.028528 -0.03424,0.037659 -0.0095,0.00951 -0.01828,0.017309 -0.02627,0.023397 -0.01332,0.010653 -0.02948,0.018829 -0.0485,0.024536 -0.01864,0.00571 -0.03937,0.00989 -0.06219,0.012553 l 0.0028,0.029114 c 0.03538,0.0038 0.07685,0.0057 0.124411,0.0057 0.0175,0 0.03272,-3.783e-4 0.04565,-0.00114 0.01332,-7.609e-4 0.02473,-0.00284 0.03424,-0.00627 0.0095,-0.00342 0.0175,-0.00876 0.02397,-0.015991 0.0068,-0.00685 0.01255,-0.016538 0.01711,-0.029093 0.0057,-0.015218 0.01275,-0.033295 0.02112,-0.05422 0.0084,-0.020544 0.01751,-0.041858 0.0274,-0.063924 0.01027,-0.021686 0.02053,-0.043168 0.0308,-0.064473 0.01065,-0.020925 0.02093,-0.039758 0.03082,-0.056498 0.01217,-0.021305 0.0251,-0.043376 0.0388,-0.066203 0.01408,-0.023208 0.0291,-0.047927 0.04508,-0.074178 0.01522,-0.02511 0.03082,-0.051742 0.04679,-0.079895 0.01636,-0.028534 0.03254,-0.058781 0.04852,-0.090739 0.01636,-0.031958 0.03233,-0.06601 0.04793,-0.1021525 0.01598,-0.036143 0.03139,-0.074756 0.04622,-0.1158448 z M 2.5386092,5.3342807 c -0.083699,0 -0.1510458,0.026632 -0.2020265,0.079895 -0.0506,0.052883 -0.075887,0.1211752 -0.075887,0.2048748 0,0.081417 0.024152,0.1474183 0.072469,0.1980184 0.048698,0.05022 0.1124288,0.075338 0.1911825,0.075338 0.080656,0 0.1470358,-0.026632 0.1991578,-0.079895 0.052502,-0.053644 0.078756,-0.1238485 0.078756,-0.2105916 0,-0.080656 -0.024152,-0.145333 -0.072469,-0.1940309 C 2.681474,5.3588114 2.6177437,5.3342814 2.5386092,5.3342807 Z m 0.9941206,0 c -0.057068,0 -0.1226909,0.016164 -0.1968791,0.048503 l 0.013123,0.038228 c 0.052122,-0.012936 0.095485,-0.019389 0.1301066,-0.019389 0.045654,0 0.079517,0.010258 0.1015828,0.030802 0.022066,0.020544 0.032912,0.052136 0.032532,0.094747 l -5.697e-4,0.044515 c -0.111853,0 -0.1940186,0.013873 -0.246521,0.041646 -0.052122,0.027773 -0.078186,0.070968 -0.078186,0.1295573 0,0.047557 0.015975,0.084446 0.047933,0.1106975 0.032338,0.025871 0.074945,0.038818 0.1278279,0.038818 0.047176,0 0.097392,-0.019212 0.1506553,-0.057638 0.013696,0.038045 0.039003,0.057068 0.075907,0.057068 0.00837,0 0.024345,-0.00324 0.047933,-0.0097 0.023588,-0.00647 0.043557,-0.012941 0.059916,-0.019409 l -0.00285,-0.022258 c -0.018642,-3.806e-4 -0.033482,-0.0017 -0.044515,-0.00399 -0.011033,-0.00266 -0.019399,-0.00704 -0.025106,-0.013123 -0.00533,-0.00647 -0.00875,-0.015611 -0.010274,-0.027405 -0.00114,-0.011794 -0.00152,-0.027391 -0.00114,-0.046794 L 3.717056,5.5117507 C 3.7174365,5.4543023 3.7012723,5.4103712 3.6685534,5.379935 3.6362149,5.3494988 3.5909391,5.3342807 3.5327298,5.3342807 Z m 0.5444338,0 c -0.062014,0 -0.1120402,0.014461 -0.1500856,0.043376 -0.037665,0.028534 -0.056498,0.067715 -0.056498,0.1175538 0,0.035762 0.00969,0.06582 0.029093,0.090169 0.019784,0.023969 0.055369,0.044505 0.1067303,0.061625 l 0.059347,0.019979 c 0.031197,0.010272 0.053835,0.022443 0.067912,0.036519 0.014457,0.014077 0.021688,0.033289 0.021688,0.057638 0,0.026251 -0.010657,0.046619 -0.031962,0.061076 -0.020925,0.014457 -0.049091,0.021668 -0.084473,0.021668 -0.03348,0 -0.061057,-0.00418 -0.082743,-0.012553 l -0.041077,-0.1226807 -0.022257,0.00342 c -0.00799,0.047176 -0.018457,0.0955 -0.031392,0.1449585 0.060492,0.023588 0.1196412,0.03538 0.1774699,0.03538 0.062775,0 0.1147136,-0.015029 0.1558025,-0.045085 0.041089,-0.030436 0.061646,-0.072097 0.061646,-0.1249797 0,-0.037284 -0.01238,-0.067342 -0.037109,-0.090169 -0.024349,-0.023208 -0.062773,-0.043744 -0.115275,-0.061625 l -0.046794,-0.015991 c -0.038806,-0.012935 -0.065438,-0.026052 -0.079895,-0.039368 -0.014077,-0.013316 -0.021118,-0.031582 -0.021118,-0.054789 0,-0.023969 0.010846,-0.042802 0.032532,-0.056498 0.022066,-0.014077 0.050989,-0.021118 0.086751,-0.021118 0.025871,0 0.049833,0.00305 0.071899,0.00913 l 0.036519,0.1089885 0.021688,-0.00399 c 0.00875,-0.048318 0.018461,-0.094161 0.029114,-0.1375327 -0.047176,-0.01674 -0.099683,-0.025106 -0.1575114,-0.025106 z m 0.4896445,0 c -0.057068,0 -0.1227112,0.016164 -0.1968995,0.048503 l 0.013143,0.038228 c 0.052122,-0.012936 0.095486,-0.019389 0.1301066,-0.019389 0.045654,0 0.079517,0.010258 0.101583,0.030802 0.022066,0.020544 0.032912,0.052136 0.032532,0.094747 l -5.696e-4,0.044515 c -0.1118531,0 -0.1940391,0.013873 -0.2465415,0.041646 -0.052122,0.027773 -0.078186,0.070968 -0.078186,0.1295573 0,0.047557 0.015975,0.084446 0.047933,0.1106975 0.032338,0.025871 0.074965,0.038818 0.1278484,0.038818 0.047176,0 0.097392,-0.019212 0.1506551,-0.057638 0.013696,0.038045 0.039004,0.057068 0.075907,0.057068 0.00837,0 0.024345,-0.00324 0.047933,-0.0097 0.023588,-0.00647 0.043557,-0.012941 0.059916,-0.019409 l -0.00285,-0.022258 c -0.018642,-3.806e-4 -0.033482,-0.0017 -0.044515,-0.00399 -0.011033,-0.00266 -0.019399,-0.00704 -0.025106,-0.013123 -0.00533,-0.00647 -0.00875,-0.015611 -0.010274,-0.027405 -0.00114,-0.011794 -0.00152,-0.027391 -0.00114,-0.046794 l 0.00285,-0.2374064 C 4.7515148,5.4543023 4.7353506,5.4103712 4.7026317,5.379935 4.6702933,5.3494988 4.6250173,5.3342807 4.5668081,5.3342807 Z m 0.5067547,0 c -0.056687,0.014077 -0.1183167,0.027382 -0.1848959,0.039937 l 0.00285,0.019409 0.075907,0.020549 c 0.00152,0.04223 0.00228,0.088263 0.00228,0.1381023 v 0.1906128 c 0,0.035002 -3.784e-4,0.05991 -0.00114,0.074748 -7.609e-4,0.00875 -0.00551,0.014656 -0.014262,0.0177 l -0.066203,0.019389 0.00228,0.023397 c 0.051361,-0.00114 0.095691,-0.00171 0.1329752,-0.00171 0.037284,0 0.082182,5.676e-4 0.1346843,0.00171 l -0.00116,-0.023397 -0.066183,-0.019389 c -0.00875,-0.00304 -0.013521,-0.00971 -0.014282,-0.019979 -7.609e-4,-0.017501 -0.00114,-0.049072 -0.00114,-0.094727 V 5.5014764 c 0,-0.059351 0.00116,-0.1137492 0.00344,-0.1632081 z m 0.9519047,0 c -0.057068,0.014457 -0.1173728,0.027763 -0.1809083,0.039937 l 0.00285,0.019409 0.075907,0.020549 c 0.00152,0.030436 0.00228,0.076658 0.00228,0.1386719 v 0.1946005 c 0,0.030436 -1.893e-4,0.053831 -5.697e-4,0.070191 -3.805e-4,0.00875 -0.00515,0.014656 -0.014282,0.0177 l -0.066182,0.019389 0.00228,0.023397 c 0.050981,-0.00114 0.095101,-0.00171 0.1323853,-0.00171 0.037284,0 0.085608,5.676e-4 0.1449586,0.00171 l -0.00171,-0.023397 -0.075907,-0.021668 c -0.00913,-0.00266 -0.013882,-0.00914 -0.014262,-0.019409 -7.609e-4,-0.02549 -0.00114,-0.067908 -0.00114,-0.1272584 v -0.247111 c 0.030817,-0.019023 0.056502,-0.028524 0.077047,-0.028524 0.021305,0 0.036902,0.00988 0.046794,0.029663 0.00989,0.019403 0.02017,0.045278 0.030823,0.077616 l 0.022827,-0.00399 c 0.010653,-0.060872 0.021478,-0.1196635 0.032512,-0.176351 l -0.00285,-0.00342 c -0.067721,0 -0.1367696,0.023584 -0.2071534,0.07076 v -0.066772 z m 0.4519654,0 C 6.4207455,5.3483575 6.3591162,5.3616631 6.292537,5.374218 l 0.00285,0.019409 0.075907,0.020549 c 0.00152,0.04223 0.00228,0.088263 0.00228,0.1381023 v 0.1906128 c 0,0.035002 -3.783e-4,0.05991 -0.00114,0.074748 -7.61e-4,0.00875 -0.00551,0.014656 -0.014262,0.0177 l -0.066203,0.019389 0.00228,0.023397 c 0.051361,-0.00114 0.095691,-0.00171 0.1329752,-0.00171 0.037284,0 0.082182,5.676e-4 0.1346844,0.00171 l -0.00116,-0.023397 -0.066183,-0.019389 c -0.00875,-0.00304 -0.013521,-0.00971 -0.014282,-0.019979 -7.61e-4,-0.017501 -0.00114,-0.049072 -0.00114,-0.094727 V 5.5014764 c 0,-0.059351 0.00116,-0.1137492 0.00344,-0.1632081 z m 0.3686524,0 c -0.062014,0 -0.1120402,0.014461 -0.1500854,0.043376 -0.037665,0.028534 -0.056498,0.067715 -0.056498,0.1175538 0,0.035762 0.00971,0.06582 0.029114,0.090169 0.019783,0.023969 0.055349,0.044505 0.1067098,0.061625 l 0.059347,0.019979 c 0.031197,0.010272 0.053835,0.022443 0.067912,0.036519 0.014457,0.014077 0.021688,0.033289 0.021688,0.057638 0,0.026251 -0.010657,0.046619 -0.031962,0.061076 -0.020925,0.014457 -0.04907,0.021668 -0.084452,0.021668 -0.03348,0 -0.061058,-0.00418 -0.082743,-0.012553 l -0.041097,-0.1226807 -0.022257,0.00342 c -0.00799,0.047176 -0.018437,0.0955 -0.031372,0.1449585 0.060492,0.023588 0.1196412,0.03538 0.17747,0.03538 0.062775,0 0.1147136,-0.015029 0.1558024,-0.045085 0.041089,-0.030436 0.061625,-0.072097 0.061625,-0.1249797 0,-0.037284 -0.01236,-0.067342 -0.037089,-0.090169 -0.024349,-0.023208 -0.062773,-0.043744 -0.1152752,-0.061625 l -0.046793,-0.015991 c -0.038806,-0.012935 -0.065438,-0.026052 -0.079895,-0.039368 -0.014077,-0.013316 -0.021118,-0.031582 -0.021118,-0.054789 0,-0.023969 0.010846,-0.042802 0.032532,-0.056498 0.022066,-0.014077 0.050968,-0.021118 0.086731,-0.021118 0.025871,0 0.049854,0.00305 0.07192,0.00913 l 0.036519,0.1089885 0.021688,-0.00399 c 0.00875,-0.048318 0.018441,-0.094161 0.029093,-0.1375327 -0.047176,-0.01674 -0.099683,-0.025106 -0.1575115,-0.025106 z m 1.1088464,0 c -0.056687,0.014457 -0.1169922,0.027763 -0.1809083,0.039937 l 0.00285,0.019409 0.075907,0.020549 c 0.00152,0.042611 0.00228,0.088833 0.00228,0.1386719 v 0.1946005 c 0,0.022447 -1.891e-4,0.045841 -5.696e-4,0.070191 -3.805e-4,0.00837 -0.00475,0.014276 -0.013123,0.0177 l -0.067342,0.019389 0.00228,0.023397 c 0.050981,-0.00114 0.095121,-0.00171 0.1324057,-0.00171 0.037284,0 0.079512,5.676e-4 0.1266886,0.00171 l -0.00114,-0.023397 -0.059367,-0.01768 c -0.00837,-0.00266 -0.012742,-0.00914 -0.013123,-0.019409 -7.61e-4,-0.039567 -0.00114,-0.08312 -0.00114,-0.1306763 V 5.4375725 c 0.041089,-0.022066 0.080857,-0.033101 0.1192831,-0.033101 0.043752,0 0.076837,0.010278 0.099284,0.030823 0.022447,0.020164 0.033671,0.053628 0.033671,0.1004232 v 0.2488201 c 0,0.018642 -1.892e-4,0.030623 -5.697e-4,0.03595 -7.608e-4,0.00875 -0.00551,0.014657 -0.014262,0.0177 l -0.057068,0.016541 0.00228,0.023397 c 0.045654,-0.00114 0.087126,-0.00171 0.1244101,-0.00171 0.037284,0 0.081026,5.676e-4 0.131246,0.00171 l -0.00114,-0.023397 -0.063334,-0.019389 c -0.00951,-0.00304 -0.014451,-0.00971 -0.014832,-0.019979 -7.608e-4,-0.022827 -0.00116,-0.058014 -0.00116,-0.1055704 V 5.5083326 c 0,-0.055546 -0.015407,-0.098342 -0.046224,-0.1283976 -0.030436,-0.030436 -0.072665,-0.045654 -0.1266887,-0.045654 -0.057068,0 -0.1186972,0.023395 -0.1848959,0.07019 V 5.338268 Z m 0.7384443,0 c -0.057068,0 -0.1226908,0.016164 -0.1968791,0.048503 l 0.013122,0.038228 c 0.052122,-0.012936 0.095506,-0.019389 0.130127,-0.019389 0.045654,0 0.079496,0.010258 0.1015626,0.030802 0.022066,0.020544 0.032912,0.052136 0.032532,0.094747 l -5.697e-4,0.044515 c -0.111853,0 -0.1940186,0.013873 -0.2465211,0.041646 -0.052122,0.027773 -0.078186,0.070968 -0.078186,0.1295573 0,0.047557 0.015975,0.084446 0.047933,0.1106975 0.032338,0.025871 0.074945,0.038818 0.127828,0.038818 0.047176,0 0.097392,-0.019212 0.1506551,-0.057638 0.013696,0.038045 0.039004,0.057068 0.075907,0.057068 0.00837,0 0.024345,-0.00324 0.047933,-0.0097 0.023588,-0.00647 0.043577,-0.012941 0.059936,-0.019409 l -0.00287,-0.022258 c -0.018642,-3.806e-4 -0.033482,-0.0017 -0.044515,-0.00399 -0.011033,-0.00266 -0.019399,-0.00704 -0.025106,-0.013123 -0.00533,-0.00647 -0.00875,-0.015611 -0.010274,-0.027405 -0.00114,-0.011794 -0.00152,-0.027391 -0.00114,-0.046794 l 0.00285,-0.2374064 C 8.8780826,5.4543023 8.8619185,5.4103712 8.8291996,5.379935 8.7968612,5.3494988 8.7515852,5.3342807 8.693376,5.3342807 Z m 2.285584,0.00342 c -0.09625,0 -0.17369,0.030247 -0.232279,0.090739 -0.05859,0.060492 -0.08789,0.1369609 -0.08789,0.2294109 0,0.070384 0.02417,0.1270732 0.07249,0.1700643 0.0487,0.042611 0.114699,0.063924 0.198017,0.063924 0.09435,0 0.171201,-0.030058 0.230552,-0.090169 0.05973,-0.060112 0.0896,-0.1358236 0.0896,-0.2271322 0,-0.072286 -0.02453,-0.1297324 -0.07361,-0.172343 -0.04908,-0.042991 -0.114701,-0.064494 -0.196879,-0.064494 z m 1.168742,0 c -0.100058,0 -0.183001,0.033105 -0.24882,0.099304 -0.06544,0.066199 -0.09815,0.1474182 -0.09815,0.2436727 0,0.061253 0.01711,0.111847 0.05135,0.1517945 0.03424,0.039567 0.07723,0.059367 0.128968,0.059367 0.03044,0 0.08008,-0.030247 0.148946,-0.090739 v 0.011414 c 0,0.023969 0.008,0.042423 0.02397,0.055359 0.01636,0.012555 0.03881,0.018819 0.06734,0.018819 0.03386,0 0.0841,-0.00799 0.150676,-0.023966 l 0.004,-0.026815 c -0.01636,0 -0.03025,-3.785e-4 -0.04167,-0.00114 -0.01103,-7.608e-4 -0.02016,-0.00248 -0.02738,-0.00515 -0.0068,-0.00304 -0.01198,-0.00685 -0.0154,-0.011414 -0.003,-0.00495 -0.0046,-0.011399 -0.0046,-0.019389 0,-0.00571 9.46e-4,-0.012937 0.0028,-0.021688 l 0.05137,-0.2539674 c 0.01446,-0.072286 0.02873,-0.1316244 0.04281,-0.1780396 l -0.0097,-0.00629 c -0.02777,0.00837 -0.05575,0.015033 -0.0839,0.019979 -0.05098,-0.014077 -0.09853,-0.021118 -0.14266,-0.021118 z m 1.480917,0 c -0.07038,0 -0.140588,0.023395 -0.210592,0.07019 3.81e-4,-0.00495 5.7e-4,-0.00913 5.7e-4,-0.012553 0,-0.018642 -0.008,-0.032725 -0.02397,-0.042236 -0.01598,-0.00951 -0.03708,-0.014262 -0.06334,-0.014262 -0.03614,0 -0.08808,0.00876 -0.155802,0.026265 l -0.0034,0.026245 c 0.01408,0 0.02644,1.893e-4 0.03709,5.697e-4 0.01103,3.804e-4 0.02016,0.00152 0.02738,0.00342 0.0072,0.00152 0.01257,0.00419 0.01599,0.008 0.0038,0.00342 0.0057,0.00836 0.0057,0.014831 0,0.0038 -0.0015,0.013894 -0.0046,0.030253 l -0.08846,0.4308676 0.15922,-0.00572 0.08502,-0.4188844 c 0.03348,-0.01674 0.06032,-0.025106 0.08049,-0.025106 0.01864,0 0.03289,0.00761 0.04279,0.022827 0.0099,0.014838 0.01826,0.043003 0.02511,0.084473 l 0.0354,-0.00572 c 0.01255,-0.065818 0.02567,-0.1285828 0.03937,-0.1883139 z m 0.378358,0 c -0.09854,0 -0.182427,0.032727 -0.251669,0.098165 -0.06924,0.065438 -0.103862,0.1466574 -0.103862,0.2436728 0,0.065438 0.02129,0.1169984 0.0639,0.1546632 0.04261,0.037665 0.09854,0.056498 0.167786,0.056498 0.08865,0 0.169297,-0.031781 0.241964,-0.095317 l -0.01941,-0.028524 c -0.05516,0.030817 -0.109753,0.046224 -0.163777,0.046224 -0.04185,0 -0.07323,-0.013326 -0.09416,-0.039958 -0.02093,-0.027012 -0.03139,-0.066193 -0.03139,-0.1175536 0,-0.00799 3.79e-4,-0.016545 0.0011,-0.025676 0.118701,-0.00571 0.208495,-0.024351 0.269368,-0.055929 0.06087,-0.031958 0.09131,-0.071726 0.09131,-0.1192831 0,-0.038045 -0.01484,-0.066947 -0.04451,-0.086731 -0.02968,-0.020164 -0.0719,-0.030253 -0.126688,-0.030253 z m 3.362427,0 c -0.09625,0 -0.173669,0.030247 -0.232259,0.090739 -0.05859,0.060492 -0.08789,0.1369609 -0.08789,0.2294109 0,0.070384 0.02417,0.1270732 0.07249,0.1700643 0.0487,0.042611 0.114699,0.063924 0.198018,0.063924 0.09435,0 0.1712,-0.030058 0.23055,-0.090169 0.05973,-0.060112 0.0896,-0.1358236 0.0896,-0.2271322 0,-0.072286 -0.02453,-0.1297324 -0.07361,-0.172343 -0.04908,-0.042991 -0.114722,-0.064494 -0.196899,-0.064494 z m -0.537578,5.697e-4 c -0.09549,0 -0.177848,0.031781 -0.24709,0.095317 -0.06924,0.063536 -0.103862,0.142275 -0.103862,0.2362468 0,0.068482 0.02073,0.1226909 0.06219,0.1626384 0.04185,0.039567 0.09473,0.059367 0.158651,0.059367 0.08294,0 0.157117,-0.033673 0.222554,-0.1010132 l -0.01939,-0.028544 c -0.04756,0.033099 -0.09208,0.049662 -0.133545,0.049662 -0.03805,0 -0.06829,-0.013894 -0.09074,-0.041667 -0.02206,-0.028154 -0.0331,-0.067523 -0.0331,-0.1181235 0,-0.072286 0.0177,-0.1331583 0.05308,-0.1826172 0.03538,-0.049839 0.08179,-0.074768 0.139241,-0.074768 0.01294,0 0.02454,0.00153 0.03481,0.00458 l 0.04395,0.1381022 0.02852,-0.00458 c 0.01065,-0.057068 0.02303,-0.1131897 0.03711,-0.1683554 -0.04794,-0.017501 -0.09874,-0.026245 -0.152385,-0.026245 z m 1.36849,0 c -0.06125,0 -0.128977,0.022827 -0.203165,0.068481 3.8e-4,-0.00304 5.7e-4,-0.0055 5.7e-4,-0.00741 3.8e-4,-0.0019 5.89e-4,-0.00325 5.89e-4,-0.00401 0,-0.018642 -0.0082,-0.032725 -0.02456,-0.042236 -0.01598,-0.00951 -0.03708,-0.014262 -0.06333,-0.014262 -0.03614,0 -0.08808,0.00876 -0.155802,0.026265 l -0.0034,0.026245 c 0.01408,0 0.02644,1.893e-4 0.03709,5.697e-4 0.01103,3.804e-4 0.02018,0.00152 0.0274,0.00342 0.0072,0.00152 0.01255,0.00419 0.01597,0.008 0.0038,0.00342 0.0057,0.00836 0.0057,0.014831 0,0.00495 -0.0015,0.015035 -0.0046,0.030253 l -0.08846,0.4308676 0.15922,-0.00572 0.08504,-0.417155 c 0.04984,-0.024349 0.08921,-0.03654 0.118123,-0.03654 0.0194,0 0.03386,0.00553 0.04338,0.016561 0.0099,0.010653 0.01483,0.027384 0.01483,0.050212 0,0.012175 -0.0021,0.028737 -0.0063,0.049662 l -0.07021,0.342977 0.160361,-0.00572 0.0742,-0.3612469 c 0.0042,-0.020164 0.0063,-0.038598 0.0063,-0.055338 0.0506,-0.024729 0.09054,-0.037109 0.119832,-0.037109 0.0194,0 0.03424,0.00553 0.04452,0.016561 0.01027,0.010653 0.0154,0.027384 0.0154,0.050212 0,0.013316 -0.0021,0.029879 -0.0063,0.049662 l -0.05137,0.2385255 c -0.003,0.015599 -0.0046,0.029303 -0.0046,0.041097 0,0.02511 0.0074,0.043187 0.02226,0.05422 0.01522,0.011033 0.03767,0.01654 0.06734,0.01654 0.04756,0 0.09985,-0.00893 0.156921,-0.026815 l 0.0023,-0.026245 c -0.01408,0 -0.02665,-1.893e-4 -0.03768,-5.697e-4 -0.01103,-7.609e-4 -0.02034,-0.00211 -0.02795,-0.00401 -0.0072,-0.00228 -0.01276,-0.00571 -0.01656,-0.010274 -0.0038,-0.00457 -0.0057,-0.01083 -0.0057,-0.018819 0,-0.00266 1.9e-4,-0.00533 5.7e-4,-0.008 3.8e-4,-0.00304 9.48e-4,-0.00609 0.0017,-0.00913 l 0.05707,-0.270508 c 0.0042,-0.018642 0.0063,-0.036131 0.0063,-0.05249 0,-0.037284 -0.0116,-0.066775 -0.03481,-0.08846 -0.02283,-0.022066 -0.05499,-0.033101 -0.09646,-0.033101 -0.06506,0 -0.138478,0.02474 -0.220276,0.074198 -0.01826,-0.049459 -0.05879,-0.074198 -0.121562,-0.074198 z m -16.2135462,0.00913 0.00228,0.022827 0.063334,0.0177 -0.206014,0.1997275 c 0.060492,0.070003 0.1169922,0.1417216 0.1694947,0.2151489 0.019403,0.026632 0.036155,0.05154 0.050232,0.074748 0.027012,-7.608e-4 0.048684,-0.00114 0.065043,-0.00114 0.024729,0 0.062585,5.676e-4 0.1135661,0.00171 l -0.00114,-0.023397 c -0.027393,-0.00647 -0.046983,-0.013888 -0.058777,-0.022258 -0.011414,-0.00837 -0.027389,-0.025291 -0.047933,-0.050781 L 1.9530988,5.552278 2.0752098,5.4392816 c 0.022447,-0.020925 0.042057,-0.035008 0.058797,-0.042236 0.01674,-0.00761 0.044318,-0.016353 0.082743,-0.026245 l -0.00228,-0.023397 c -0.05859,0.00114 -0.098358,0.00171 -0.1192832,0.00171 -0.023208,0 -0.05934,-5.677e-4 -0.1084188,-0.00171 z m 3.5724499,0 0.00228,0.022827 0.063334,0.0177 -0.2060141,0.1997275 c 0.060492,0.070003 0.1169922,0.1417216 0.1694948,0.2151489 0.019403,0.026632 0.036155,0.05154 0.050232,0.074748 0.027012,-7.608e-4 0.048684,-0.00114 0.065043,-0.00114 0.024729,0 0.062585,5.676e-4 0.1135661,0.00171 l -0.00114,-0.023397 c -0.027393,-0.00647 -0.046983,-0.013888 -0.058777,-0.022258 -0.011414,-0.00837 -0.027388,-0.025291 -0.047933,-0.050781 L 5.5255487,5.552278 5.6476596,5.4392816 c 0.022447,-0.020925 0.042057,-0.035008 0.058797,-0.042236 0.01674,-0.00761 0.044318,-0.016353 0.082743,-0.026245 l -0.00228,-0.023397 c -0.05859,0.00114 -0.098358,0.00171 -0.1192832,0.00171 -0.023208,0 -0.05934,-5.677e-4 -0.1084188,-0.00171 z m 5.0978613,0.00342 c -0.04451,0.00114 -0.08863,0.00171 -0.132386,0.00171 -0.0194,0 -0.035,-1.892e-4 -0.04679,-5.697e-4 -0.01446,0.02549 -0.04071,0.058217 -0.07876,0.098165 -0.03805,0.039567 -0.0898,0.088269 -0.155232,0.1460979 0.03234,0.055546 0.05973,0.1063294 0.08217,0.1523642 0.02245,0.045654 0.04071,0.088639 0.05479,0.1289672 0.02321,-7.608e-4 0.04927,-0.00114 0.07819,-0.00114 0.04679,0 0.09512,5.676e-4 0.144958,0.00171 l 0.0051,-0.027954 c -0.01484,-0.00342 -0.02663,-0.00647 -0.03538,-0.00913 -0.0088,-0.00266 -0.01636,-0.00628 -0.02283,-0.010844 -0.0061,-0.00495 -0.01199,-0.011399 -0.0177,-0.019389 -0.0053,-0.00799 -0.01178,-0.019214 -0.01939,-0.033671 l -0.125549,-0.2334189 0.09871,-0.091309 c 0.01255,-0.011414 0.02474,-0.020915 0.03654,-0.028524 0.01179,-0.00799 0.02415,-0.014653 0.03709,-0.019979 0.01332,-0.00533 0.02759,-0.00989 0.04281,-0.013692 0.01522,-0.00419 0.03214,-0.0078 0.05078,-0.010844 z m 2.468771,0 c -0.04451,0.00114 -0.08865,0.00171 -0.132406,0.00171 -0.0194,0 -0.035,-1.892e-4 -0.04679,-5.697e-4 -0.01446,0.02549 -0.04071,0.058217 -0.07876,0.098165 -0.03804,0.039567 -0.08979,0.088269 -0.155232,0.1460979 0.03234,0.055546 0.05975,0.1063294 0.08219,0.1523642 0.02245,0.045654 0.04069,0.088639 0.05477,0.1289672 0.02321,-7.608e-4 0.04927,-0.00114 0.07819,-0.00114 0.04679,0 0.09512,5.676e-4 0.144958,0.00171 l 0.0051,-0.027954 c -0.01484,-0.00342 -0.02663,-0.00647 -0.03538,-0.00913 -0.0088,-0.00266 -0.01636,-0.00628 -0.02283,-0.010844 -0.0061,-0.00495 -0.01197,-0.011399 -0.01768,-0.019389 -0.0053,-0.00799 -0.0118,-0.019214 -0.01941,-0.033671 l -0.125549,-0.2334189 0.09873,-0.091309 c 0.01256,-0.011414 0.02473,-0.020915 0.03652,-0.028524 0.01179,-0.00799 0.02415,-0.014653 0.03709,-0.019979 0.01332,-0.00533 0.02759,-0.00989 0.04281,-0.013692 0.01522,-0.00419 0.03214,-0.0078 0.05078,-0.010844 z M 2.5277653,5.3793653 c 0.051361,0 0.090542,0.020915 0.1175537,0.062765 0.027012,0.04185 0.040527,0.099107 0.040527,0.1717734 0,0.077232 -0.012927,0.1356445 -0.038798,0.1752116 -0.02549,0.039187 -0.062779,0.058777 -0.1118572,0.058777 -0.052502,0 -0.092082,-0.02226 -0.1187133,-0.066772 -0.026632,-0.044893 -0.039937,-0.1029073 -0.039937,-0.174052 0,-0.076471 0.012927,-0.1335389 0.038798,-0.1712037 0.026251,-0.037665 0.063729,-0.056498 0.1124268,-0.056498 z m 9.6096627,0.010844 c 0.02625,0 0.04965,0.00475 0.07019,0.014262 l -0.06962,0.3389894 c -0.05402,0.040709 -0.09169,0.061056 -0.112997,0.061056 -0.0156,0 -0.02947,-0.014461 -0.04165,-0.043376 -0.01179,-0.029295 -0.0177,-0.063157 -0.0177,-0.1015828 0,-0.065438 0.01616,-0.1266887 0.0485,-0.1837565 0.03234,-0.057068 0.07343,-0.085592 0.123271,-0.085592 z m 2.449932,0 c 0.02777,0 0.05287,0.00475 0.07532,0.014262 l -0.06962,0.3389894 c -0.05555,0.040709 -0.09435,0.061056 -0.116414,0.061056 -0.0156,0 -0.02949,-0.014461 -0.04167,-0.043376 -0.0118,-0.029295 -0.01768,-0.063157 -0.01768,-0.1015828 0,-0.065438 0.01598,-0.1266887 0.04793,-0.1837565 0.03196,-0.057068 0.07267,-0.085592 0.122131,-0.085592 z m 0.679097,0 c 0.02777,0 0.05289,0.00475 0.07534,0.014262 l -0.06962,0.3389894 c -0.05555,0.040709 -0.09437,0.061056 -0.116436,0.061056 -0.0156,0 -0.02947,-0.014461 -0.04165,-0.043376 -0.01179,-0.029295 -0.0177,-0.063157 -0.0177,-0.1015828 0,-0.065438 0.01597,-0.1266887 0.04793,-0.1837565 0.03196,-0.057068 0.07267,-0.085592 0.122131,-0.085592 z m -4.294353,0.00627 c 0.03386,0 0.06049,0.015218 0.0799,0.045654 0.0194,0.030056 0.02909,0.072095 0.02909,0.1261191 0,0.069623 -0.01331,0.1312723 -0.03994,0.1849162 -0.02663,0.053263 -0.06163,0.079895 -0.105001,0.079895 -0.035,0 -0.06201,-0.015218 -0.08103,-0.045654 -0.01902,-0.030436 -0.02873,-0.072685 -0.02911,-0.126709 -3.8e-4,-0.072286 0.01332,-0.1342936 0.0411,-0.1860352 0.02777,-0.052122 0.06277,-0.078186 0.105001,-0.078186 z m 2.997783,0 c 0.01446,0 0.02625,0.00515 0.03538,0.015422 0.0095,0.00989 0.01426,0.024921 0.01426,0.045085 0,0.072666 -0.06581,0.1150839 -0.197449,0.1272583 0.01103,-0.055546 0.03062,-0.1006327 0.05878,-0.1352538 0.02815,-0.035002 0.05783,-0.052511 0.08903,-0.052511 z m 3.392681,0 c 0.03386,0 0.06049,0.015218 0.0799,0.045654 0.0194,0.030056 0.02909,0.072095 0.02909,0.1261191 0,0.069623 -0.01331,0.1312723 -0.03994,0.1849162 -0.02663,0.053263 -0.06163,0.079895 -0.105001,0.079895 -0.035,0 -0.06201,-0.015218 -0.08103,-0.045654 -0.01902,-0.030436 -0.02873,-0.072685 -0.02911,-0.126709 -3.8e-4,-0.072286 0.01332,-0.1342936 0.0411,-0.1860352 0.02777,-0.052122 0.06277,-0.078186 0.105001,-0.078186 z M 1.1754292,5.4177361 v 3.5851045 h -0.00387 v 0.038269 H 8.1007041 V 9.0028406 H 1.2137797 V 5.4177361 Z m 8.3505683,0.00271 c 0.023208,0 0.046792,0.00628 0.07076,0.01884 l -0.059916,0.2904663 c -0.051742,0.036143 -0.088253,0.05422 -0.1095582,0.05422 -0.023968,0 -0.042423,-0.011603 -0.055359,-0.03481 -0.012555,-0.023208 -0.018839,-0.052299 -0.018839,-0.087301 0,-0.060872 0.016732,-0.1162374 0.050212,-0.1660767 0.03348,-0.05022 0.074383,-0.075338 0.122701,-0.075338 z m -5.9133727,0.1974691 -0.00114,0.186605 c -0.029295,0.013316 -0.063536,0.019979 -0.1027222,0.019979 -0.034621,0 -0.06201,-0.00742 -0.082174,-0.022258 -0.020164,-0.015218 -0.030253,-0.040904 -0.030253,-0.077047 0,-0.038806 0.015218,-0.066384 0.045654,-0.082743 0.030436,-0.01636 0.087315,-0.024536 0.170634,-0.024536 z m 1.0340784,0 -0.00114,0.186605 c -0.029295,0.013316 -0.063535,0.019979 -0.1027222,0.019979 -0.034621,0 -0.06203,-0.00742 -0.082194,-0.022258 -0.020164,-0.015218 -0.030233,-0.040904 -0.030233,-0.077047 0,-0.038806 0.015218,-0.066384 0.045654,-0.082743 0.030436,-0.01636 0.087315,-0.024536 0.170634,-0.024536 z m 4.1265678,0 -0.00114,0.186605 c -0.029295,0.013316 -0.063536,0.019979 -0.1027222,0.019979 -0.034621,0 -0.06201,-0.00742 -0.082174,-0.022258 -0.020164,-0.015218 -0.030253,-0.040904 -0.030253,-0.077047 0,-0.038806 0.015218,-0.066384 0.045654,-0.082743 0.030436,-0.01636 0.087315,-0.024536 0.170634,-0.024536 z m 7.463341,0.095866 c -0.02625,0 -0.04754,0.00818 -0.06391,0.024536 -0.01598,0.015979 -0.02399,0.037292 -0.02399,0.063924 0,0.026251 0.008,0.047734 0.02399,0.064474 0.01636,0.01674 0.03765,0.025126 0.06391,0.025126 0.02511,0 0.04585,-0.00839 0.06221,-0.025126 0.01636,-0.01674 0.02454,-0.038222 0.02454,-0.064474 0,-0.026632 -0.0082,-0.047945 -0.02454,-0.063924 -0.01636,-0.01636 -0.03711,-0.024536 -0.06221,-0.024536 z m -5.422915,2.7829191 c -0.01381,0 -0.02624,0.00345 -0.03729,0.010356 -0.0107,0.0069 -0.01795,0.022628 -0.02175,0.04714 l -0.06421,0.3692221 -0.05646,0.2982789 c -0.01036,0.052821 -0.01552,0.083205 -0.01552,0.091146 0,0.026583 0.0145,0.039876 0.0435,0.039876 0.01277,0 0.02347,-0.00292 0.0321,-0.00879 0.009,-0.00552 0.01553,-0.012956 0.01967,-0.022278 0.0045,-0.00967 0.0097,-0.029514 0.01554,-0.05955 l 0.06317,-0.3386842 c 0.0041,-0.027274 0.0091,-0.056453 0.01501,-0.087525 0.03383,-0.1860831 0.05076,-0.2863627 0.05076,-0.3008627 0,-0.025548 -0.01485,-0.03833 -0.04454,-0.03833 z m -0.289489,0.058533 c -0.0183,0 -0.03469,0.00707 -0.04919,0.02122 -0.0145,0.013809 -0.02175,0.029859 -0.02175,0.048157 0,0.014155 0.0048,0.02608 0.01451,0.035746 0.01001,0.00967 0.02243,0.014486 0.03727,0.014486 0.01899,0 0.03557,-0.00707 0.04972,-0.02122 0.0145,-0.014155 0.02175,-0.030388 0.02175,-0.048686 0,-0.013464 -0.0048,-0.025022 -0.01451,-0.034688 -0.0093,-0.010012 -0.02192,-0.015015 -0.0378,-0.015015 z M 9.0711023,8.7556278 c -0.018297,0 -0.034184,0.012088 -0.047648,0.036255 -0.013464,0.023821 -0.024164,0.078545 -0.032104,0.1641643 -0.00207,0.035214 -0.00397,0.059717 -0.0057,0.073527 -0.00173,0.01381 -0.00932,0.047644 -0.022787,0.1015015 -0.017262,0.073535 -0.025899,0.1246249 -0.025899,0.1532796 0,0.048333 0.014682,0.07251 0.044027,0.07251 0.014845,0 0.027791,-0.00449 0.038839,-0.013468 0.011048,-0.00898 0.017602,-0.018287 0.019674,-0.027954 0.00242,-0.00967 0.00362,-0.026084 0.00362,-0.049215 0,-0.027619 0.00727,-0.07197 0.021769,-0.133077 0.011738,-0.046607 0.018803,-0.076991 0.02122,-0.091146 l 0.029521,-0.033142 0.073018,-0.068868 c 0.027964,-0.024857 0.055245,-0.042479 0.081828,-0.052836 0.00414,0.011048 0.00621,0.024524 0.00621,0.040405 0,0.012774 -0.00139,0.027619 -0.00415,0.044535 -0.00621,0.041083 -0.011911,0.1028723 -0.01709,0.1853841 -0.0038,0.07181 -0.00758,0.1222248 -0.011373,0.1512248 -0.00345,0.028655 -0.00519,0.043663 -0.00519,0.045044 0,0.027619 0.014334,0.041422 0.042989,0.041422 0.014845,0 0.027791,-0.00482 0.038839,-0.014486 0.011048,-0.00967 0.018113,-0.023491 0.02122,-0.041443 0.00311,-0.017607 0.00656,-0.061611 0.010356,-0.1320394 l 0.00726,-0.138794 c 0.00207,-0.030726 0.00587,-0.062825 0.011393,-0.096313 0.016226,-0.0145 0.042465,-0.031775 0.078715,-0.051799 0.03625,-0.020024 0.059896,-0.030029 0.070943,-0.030029 0.013464,0 0.02347,0.014151 0.030029,0.04246 0.00656,0.027964 0.00932,0.052651 0.00828,0.074056 L 9.551673,9.168368 c -0.00518,0.051786 -0.00777,0.105121 -0.00777,0.1600139 0,0.030381 0.014151,0.045573 0.04246,0.045573 0.013119,0 0.025044,-0.00415 0.035746,-0.012431 0.011048,-0.00794 0.018296,-0.017272 0.021749,-0.027974 0.00173,-0.00518 0.00483,-0.066804 0.00932,-0.1848756 0.0038,-0.094595 0.0057,-0.1745166 0.0057,-0.2397665 0,-0.08044 -0.03504,-0.1206462 -0.1051229,-0.1206462 -0.066976,0 -0.123599,0.025197 -0.1698609,0.075602 -0.011393,-0.053857 -0.044186,-0.08079 -0.098389,-0.08079 -0.024167,0 -0.056286,0.015029 -0.096334,0.045064 -0.040048,0.030036 -0.071636,0.063523 -0.094767,0.100464 l 0.00726,-0.05542 c 3.452e-4,-0.00345 0.00137,-0.00794 0.00309,-0.013468 0.00829,-0.030036 0.012431,-0.048331 0.012431,-0.054891 0,-0.012774 -0.00466,-0.024168 -0.013977,-0.03418 -0.00898,-0.010012 -0.019676,-0.015015 -0.032106,-0.015015 z m -0.4142864,0.03418 c -0.091488,0 -0.1660595,0.040737 -0.2237142,0.1222128 -0.057655,0.081476 -0.086487,0.164685 -0.086487,0.2496135 0,0.05869 0.020726,0.1054712 0.062154,0.1403403 0.041429,0.034524 0.099072,0.051778 0.1729533,0.051778 0.05869,0 0.11807,-0.014498 0.1781413,-0.043498 0.060417,-0.029345 0.090637,-0.061628 0.090637,-0.096843 0,-0.010357 -0.0038,-0.019321 -0.011393,-0.026916 -0.0076,-0.00794 -0.01709,-0.011922 -0.028483,-0.011922 -0.014155,0 -0.028305,0.00915 -0.04246,0.027445 -0.013464,0.016917 -0.038682,0.030904 -0.075622,0.041952 -0.036941,0.011048 -0.068876,0.016561 -0.095805,0.016561 -0.076297,0 -0.1294492,-0.028648 -0.1594848,-0.085958 l 0.212321,-0.094238 c 0.039357,-0.017262 0.071109,-0.03178 0.095276,-0.043518 0.024512,-0.012083 0.047136,-0.028991 0.067851,-0.050741 0.02106,-0.022095 0.031576,-0.048497 0.031576,-0.079224 0,-0.037286 -0.016049,-0.066118 -0.048157,-0.086487 -0.032107,-0.020369 -0.078541,-0.030558 -0.1393036,-0.030558 z m 1.4241131,0 c -0.086309,0 -0.1657201,0.035387 -0.23822,0.1061605 -0.072155,0.070774 -0.1082357,0.163294 -0.1082357,0.2775677 0,0.1229046 0.064566,0.1843669 0.193685,0.1843669 0.031762,0 0.084934,-0.017949 0.1595057,-0.053853 0.0066,0.012429 0.01691,0.025538 0.03107,0.039347 0.01416,0.014155 0.02381,0.02124 0.02899,0.02124 0.03073,0 0.0499,-0.01607 0.05749,-0.048177 l -0.0021,-0.00828 c -0.01795,-0.061107 -0.02694,-0.1090927 -0.02694,-0.1439616 0,-0.02831 0.0062,-0.074559 0.01863,-0.1387737 0.01277,-0.064559 0.02262,-0.1035809 0.02952,-0.1170452 0.0093,-0.00794 0.014,-0.018987 0.014,-0.033142 0,-0.022786 -0.01797,-0.042633 -0.05387,-0.05955 -0.03556,-0.017262 -0.07007,-0.025899 -0.103557,-0.025899 z m 0.388387,0.010356 c -0.03349,0 -0.05333,0.017275 -0.05955,0.051798 -0.0038,0.022095 -0.01192,0.062832 -0.02435,0.1222129 -0.01519,0.06525 -0.0252,0.1185853 -0.03003,0.1600138 l -0.02071,0.1584676 c 0,0.026583 0.0145,0.039876 0.0435,0.039876 0.03211,0 0.05144,-0.017785 0.058,-0.053345 0.0069,-0.035559 0.01381,-0.083892 0.02071,-0.1449993 0.0038,-0.033833 0.01399,-0.087169 0.03056,-0.1600138 0.01692,-0.080095 0.02537,-0.1246299 0.02537,-0.1336061 0,-0.026929 -0.0145,-0.040405 -0.0435,-0.040404 z m -0.39565,0.081828 c 0.01277,0 0.03005,0.00639 0.0518,0.019165 -0.02417,0.061797 -0.03901,0.1650176 -0.04454,0.3096722 -0.04523,0.037976 -0.093558,0.056966 -0.1449989,0.056966 -0.065595,0 -0.098409,-0.03798 -0.098409,-0.1139324 0,-0.077333 0.024871,-0.1418993 0.074585,-0.1936849 0.050059,-0.052131 0.1039049,-0.078186 0.1615599,-0.078186 z m -1.4313561,0.00104 c 0.053167,0 0.092351,0.013803 0.1175537,0.041423 -0.026238,0.019679 -0.075081,0.045754 -0.1465454,0.078206 l -0.1693319,0.07664 C 8.4912839,8.9484523 8.5573814,8.8830286 8.6423099,8.8830286 Z" />
  </g>
</svg>
