<?xml version="1.0" encoding="UTF-8" standalone="no"?>
<!-- Created with Inkscape (http://www.inkscape.org/) -->

<svg
   width="14.5in"
   height="8in"
   viewBox="0 0 14.5 8"
   version="1.1"
   id="svg3547"
   inkscape:version="1.1 (c68e22c387, 2021-05-23)"
   sodipodi:docname="GitnMail.svg"
   xmlns:inkscape="http://www.inkscape.org/namespaces/inkscape"
   xmlns:sodipodi="http://sodipodi.sourceforge.net/DTD/sodipodi-0.dtd"
   xmlns="http://www.w3.org/2000/svg"
   xmlns:svg="http://www.w3.org/2000/svg">
  <sodipodi:namedview
     id="namedview3549"
     pagecolor="#ffffff"
     bordercolor="#999999"
     borderopacity="1"
     inkscape:pageshadow="0"
     inkscape:pageopacity="0"
     inkscape:pagecheckerboard="0"
     inkscape:document-units="in"
     showgrid="false"
     units="in"
     scale-x="1"
     inkscape:zoom="0.38395763"
     inkscape:cx="795.6607"
     inkscape:cy="449.26832"
     inkscape:window-width="1920"
     inkscape:window-height="1051"
     inkscape:window-x="-9"
     inkscape:window-y="-9"
     inkscape:window-maximized="1"
     inkscape:current-layer="layer1" />
  <defs
     id="defs3544" />
  <g
     inkscape:label="Layer 1"
     inkscape:groupmode="layer"
     id="layer1">
    <g
       id="g30815"
       transform="translate(-0.32555675,-0.37981621)">
      <g
         aria-label="kotakrishna@kotakreddy.com"
         id="text5654"
         style="font-size:0.888889px;line-height:1.25;font-family:Constantia;-inkscape-font-specification:'Constantia, Normal';stroke-width:0.0104167"
         inkscape:transform-center-x="0.21703784"
         inkscape:transform-center-y="-0.27129729">
        <path
           d="m 2.1950721,4.4234494 q -0.05816,-0.0013 -0.086371,-0.0013 -0.018663,0 -0.049479,8.68e-4 -0.01606,-0.026478 -0.038195,-0.05686 -0.059896,-0.083767 -0.1289063,-0.1636285 l 0.1566841,-0.1519098 -0.048177,-0.013455 -0.00174,-0.017361 q 0.05599,0.0013 0.082465,0.0013 0.023872,0 0.090712,-0.0013 l 0.00174,0.017795 q -0.043837,0.011285 -0.062934,0.019965 -0.019097,0.00825 -0.044705,0.032118 l -0.092882,0.085938 0.139757,0.1744792 q 0.023437,0.02908 0.036458,0.038628 0.013455,0.00955 0.044705,0.016927 z M 1.7397769,3.8132062 1.7376068,3.7988833 q 0.076823,-0.014757 0.1414931,-0.030816 l 0.00391,0.00347 q -0.0026,0.063368 -0.0026,0.1966147 v 0.2838542 q 0,0.064236 8.68e-4,0.125868 8.681e-4,0.012587 0.011285,0.015191 l 0.042101,0.012587 8.681e-4,0.017795 q -0.052083,-0.0013 -0.094618,-0.0013 -0.042535,0 -0.1006944,0.0013 l -0.00174,-0.017795 0.051215,-0.015191 q 0.00868,-0.00304 0.00955,-0.013021 8.68e-4,-0.049045 8.68e-4,-0.109375 V 4.0896819 q 0,-0.2252604 -0.00174,-0.2591146 z"
           id="path30621" />
        <path
           d="m 2.2953326,4.2172861 q 0,0.081163 0.030382,0.1323785 0.030382,0.050781 0.090278,0.050781 0.05599,0 0.085069,-0.044705 0.029514,-0.045139 0.029514,-0.1332465 0,-0.082899 -0.030816,-0.1306424 -0.030816,-0.047743 -0.08941,-0.047743 -0.055556,0 -0.085503,0.042969 -0.029514,0.042969 -0.029514,0.1302084 z m 0.3237847,-0.00391 q 0,0.098958 -0.059896,0.1601563 -0.059462,0.060764 -0.1514757,0.060764 -0.089844,0 -0.1453993,-0.057292 -0.055122,-0.057726 -0.055122,-0.1506077 0,-0.095486 0.057726,-0.155816 0.05816,-0.060764 0.1536459,-0.060764 0.090278,0 0.1453993,0.05599 0.055122,0.055556 0.055122,0.1475694 z"
           id="path30623" />
        <path
           d="m 2.8092216,4.0671125 q -0.0026,0.1467014 -0.0026,0.2365452 0,0.045139 0.013455,0.0625 0.013455,0.016927 0.051215,0.016927 0.029948,0 0.078125,-0.00781 l 0.0026,0.019531 q -0.075087,0.03776 -0.1341146,0.03776 -0.047309,0 -0.070312,-0.025174 -0.023004,-0.025608 -0.023004,-0.076823 0,-0.084201 0.00304,-0.2660591 L 2.66773,4.0497526 2.66513,4.0319576 2.73197,4.0263176 2.761918,3.9212828 q 0.024306,-0.00651 0.044271,-0.012587 l 0.00434,0.00304 q -0.0013,0.052517 -0.0013,0.09809 v 0.016059 h 0.1306423 v 0.041233 z"
           id="path30625" />
        <path
           d="m 3.2354369,4.2255327 q -0.095052,0 -0.1297743,0.018663 -0.034722,0.018663 -0.034722,0.062934 0,0.041233 0.023003,0.058594 0.023004,0.016927 0.0625,0.016927 0.044705,0 0.078125,-0.015191 z M 3.0249334,4.0467132 q 0.084635,-0.036892 0.1497396,-0.036892 0.066406,0 0.1032986,0.034722 0.037326,0.034722 0.036892,0.1002604 l -0.00217,0.1805556 q -4.34e-4,0.022135 8.681e-4,0.03559 0.00174,0.013455 0.00781,0.020833 0.00651,0.00694 0.019097,0.00998 0.012587,0.0026 0.033854,0.00304 l 0.00217,0.016927 q -0.018663,0.00738 -0.045573,0.014757 -0.02691,0.00738 -0.036458,0.00738 -0.042101,0 -0.057726,-0.043403 -0.060764,0.043837 -0.1145834,0.043837 -0.06033,0 -0.097222,-0.029514 -0.036458,-0.029948 -0.036458,-0.084201 0,-0.06684 0.059462,-0.098524 0.059896,-0.031684 0.1875,-0.031684 l 4.34e-4,-0.033854 q 4.34e-4,-0.048611 -0.02474,-0.072049 -0.025174,-0.023437 -0.077257,-0.023437 -0.039497,0 -0.098958,0.014757 z"
           id="path30627" />
        <path
           d="m 3.8738918,4.4234494 q -0.05816,-0.0013 -0.086371,-0.0013 -0.018663,0 -0.049479,8.68e-4 -0.016059,-0.026476 -0.038194,-0.056858 -0.059896,-0.083767 -0.1289062,-0.1636285 l 0.156684,-0.1519098 -0.048177,-0.013455 -0.00174,-0.017361 q 0.05599,0.0013 0.082465,0.0013 0.023871,0 0.090712,-0.0013 l 0.00174,0.017795 q -0.043837,0.011285 -0.062934,0.019965 -0.019097,0.00825 -0.044705,0.032118 l -0.092882,0.085938 0.1397569,0.1744792 q 0.023437,0.02908 0.036458,0.038628 0.013455,0.00955 0.044705,0.016927 z M 3.4185966,3.8132062 3.4164265,3.7988833 q 0.076823,-0.014757 0.141493,-0.030816 l 0.00391,0.00347 q -0.0026,0.063368 -0.0026,0.1966147 v 0.2838542 q 0,0.064236 8.681e-4,0.125868 8.68e-4,0.012587 0.011285,0.015191 l 0.042101,0.012587 8.681e-4,0.017795 q -0.052083,-0.0013 -0.094618,-0.0013 -0.042535,0 -0.1006945,0.0013 l -0.00174,-0.017795 0.051215,-0.015191 q 0.00868,-0.00304 0.00955,-0.013021 8.681e-4,-0.049045 8.681e-4,-0.109375 V 4.0896819 q 0,-0.2252604 -0.00174,-0.2591146 z"
           id="path30629" />
        <path
           d="m 3.8947252,4.0402028 q 0.072483,-0.013889 0.1375868,-0.030382 l 0.00434,0.00304 v 0.050781 q 0.080295,-0.05382 0.1575521,-0.05382 l 0.00217,0.0026 q -0.012587,0.06467 -0.02474,0.1341146 l -0.017361,0.00304 Q 4.142121,4.1126854 4.1308363,4.09055 4.1195513,4.067981 4.0952463,4.067981 q -0.023437,0 -0.058594,0.021701 v 0.187934 q 0,0.067708 8.68e-4,0.096788 4.34e-4,0.011719 0.010851,0.014757 l 0.057726,0.016493 0.0013,0.017795 q -0.067708,-0.0013 -0.1102431,-0.0013 -0.042535,0 -0.1006944,0.0013 l -0.00174,-0.017795 0.050347,-0.014757 q 0.010417,-0.00347 0.010851,-0.013455 4.34e-4,-0.018663 4.34e-4,-0.053385 V 4.1760535 q 0,-0.070747 -0.00174,-0.1054688 l -0.057726,-0.015625 z"
           id="path30631" />
        <path
           d="m 4.3821384,3.856175 q 0,0.023003 -0.014323,0.03776 -0.014323,0.014323 -0.036892,0.014323 -0.021701,0 -0.03559,-0.013455 -0.013455,-0.013455 -0.013455,-0.03559 0,-0.023437 0.014323,-0.036892 0.014323,-0.013889 0.03776,-0.013889 0.021267,0 0.034722,0.012587 0.013455,0.012153 0.013455,0.035156 z M 4.235437,4.0402028 q 0.075955,-0.014323 0.140625,-0.030382 l 0.00391,0.00304 q -0.0026,0.056424 -0.0026,0.124132 v 0.1666667 q 0,0.052083 8.68e-4,0.072049 8.681e-4,0.011719 0.010851,0.015191 l 0.050347,0.014757 8.68e-4,0.017795 q -0.059896,-0.0013 -0.1024305,-0.0013 -0.042535,0 -0.1011285,0.0013 l -0.00174,-0.017795 0.050347,-0.014757 q 0.00998,-0.00347 0.010851,-0.013455 8.68e-4,-0.016927 8.68e-4,-0.056858 v -0.144967 q 0,-0.056858 -0.00174,-0.1050348 L 4.237607,4.0549597 Z"
           id="path30633" />
        <path
           d="m 4.7098294,4.0536576 q -0.025174,-0.00694 -0.054687,-0.00694 -0.040799,0 -0.065972,0.016059 -0.02474,0.015625 -0.02474,0.042969 0,0.026476 0.016059,0.041667 0.016493,0.015191 0.060764,0.029948 l 0.03559,0.012153 q 0.059896,0.020399 0.087674,0.046875 0.028212,0.026042 0.028212,0.068576 0,0.06033 -0.046875,0.095052 -0.046875,0.034288 -0.1184896,0.034288 -0.065972,0 -0.1349826,-0.02691 0.014757,-0.056424 0.023872,-0.110243 l 0.016927,-0.0026 0.03125,0.093316 q 0.02474,0.00955 0.062934,0.00955 0.040365,0 0.064236,-0.016493 0.024305,-0.016493 0.024305,-0.046441 0,-0.027778 -0.016493,-0.043837 -0.016059,-0.016059 -0.051649,-0.027778 l -0.045139,-0.015191 q -0.058594,-0.019531 -0.081163,-0.046875 -0.022135,-0.027778 -0.022135,-0.068576 0,-0.056858 0.042969,-0.08941 0.043403,-0.032986 0.1141493,-0.032986 0.065972,0 0.1197917,0.019097 -0.012153,0.049479 -0.022135,0.1046007 l -0.016493,0.00304 z"
           id="path30635" />
        <path
           d="m 4.8439441,3.7988833 q 0.070747,-0.013889 0.1414931,-0.030816 l 0.00391,0.00347 q -0.00217,0.040799 -0.0026,0.1163195 0,0.075521 0,0.1705729 0.075521,-0.048611 0.140625,-0.048611 0.06033,0 0.09592,0.033854 0.03559,0.03342 0.03559,0.098524 v 0.1532118 q 0,0.049913 8.681e-4,0.080295 4.34e-4,0.011285 0.010851,0.015191 l 0.048611,0.014757 8.681e-4,0.017795 q -0.057292,-0.0013 -0.099826,-0.0013 -0.042535,0 -0.094618,0.0013 l -0.00174,-0.017795 0.042969,-0.012587 q 0.010417,-0.00347 0.011285,-0.013455 4.34e-4,-0.00608 4.34e-4,-0.027344 V 4.1630327 q 0,-0.053385 -0.025608,-0.076389 -0.025608,-0.023437 -0.075521,-0.023437 -0.042969,0 -0.090712,0.020833 v 0.1948785 q 0,0.053819 8.68e-4,0.098524 4.341e-4,0.012153 0.010851,0.015191 l 0.045139,0.013021 8.681e-4,0.017795 q -0.054687,-0.0013 -0.097222,-0.0013 -0.042535,0 -0.1006944,0.0013 l -0.00174,-0.017795 0.049045,-0.014323 q 0.011285,-0.00347 0.011719,-0.013889 8.68e-4,-0.041667 8.68e-4,-0.1063368 V 4.0896819 q 0,-0.088542 -4.34e-4,-0.156684 0,-0.068142 -0.0013,-0.1024306 l -0.058594,-0.017361 z"
           id="path30637" />
        <path
           d="M 5.3621732,4.0402028 Q 5.4350898,4.0263139 5.49976,4.0098208 l 0.00434,0.00304 v 0.050347 q 0.075521,-0.053386 0.140625,-0.053386 0.061632,0 0.096354,0.034722 0.035156,0.034288 0.035156,0.097656 v 0.1532118 q 0,0.054253 8.681e-4,0.080295 4.34e-4,0.011719 0.011285,0.015191 l 0.048177,0.014757 8.68e-4,0.017795 q -0.057292,-0.0013 -0.099826,-0.0013 -0.042535,0 -0.094618,0.0013 l -0.00174,-0.017795 0.043403,-0.012587 q 0.00998,-0.00347 0.010851,-0.013455 4.341e-4,-0.00608 4.341e-4,-0.027344 V 4.1630327 q 0,-0.053385 -0.025608,-0.076389 -0.025608,-0.023437 -0.075521,-0.023437 -0.043837,0 -0.090712,0.025174 V 4.27805 q 0,0.054253 8.68e-4,0.099392 4.34e-4,0.011719 0.00998,0.014757 l 0.045139,0.013455 8.681e-4,0.017795 q -0.05382,-0.0013 -0.096354,-0.0013 -0.042535,0 -0.1006944,0.0013 l -0.00174,-0.017795 0.051215,-0.014757 q 0.00955,-0.00391 0.00998,-0.013455 4.34e-4,-0.027778 4.34e-4,-0.053385 V 4.1760535 q 0,-0.056858 -0.00174,-0.1054688 l -0.057726,-0.015625 z"
           id="path30639" />
        <path
           d="m 6.1221559,4.2255327 q -0.095052,0 -0.1297743,0.018663 -0.034722,0.018663 -0.034722,0.062934 0,0.041233 0.023003,0.058594 0.023003,0.016927 0.0625,0.016927 0.044705,0 0.078125,-0.015191 z M 5.9116524,4.0467132 q 0.084635,-0.036892 0.1497396,-0.036892 0.066406,0 0.1032986,0.034722 0.037326,0.034722 0.036892,0.1002604 l -0.00217,0.1805556 q -4.34e-4,0.022135 8.681e-4,0.03559 0.00174,0.013455 0.00781,0.020833 0.00651,0.00694 0.019097,0.00998 0.012587,0.0026 0.033854,0.00304 l 0.00217,0.016927 q -0.018663,0.00738 -0.045573,0.014757 -0.02691,0.00738 -0.036458,0.00738 -0.042101,0 -0.057726,-0.043403 -0.060764,0.043837 -0.1145834,0.043837 -0.06033,0 -0.097222,-0.029514 -0.036458,-0.029948 -0.036458,-0.084201 0,-0.06684 0.059462,-0.098524 0.059896,-0.031684 0.1875001,-0.031684 l 4.34e-4,-0.033854 q 4.34e-4,-0.048611 -0.02474,-0.072049 -0.025174,-0.023437 -0.077257,-0.023437 -0.039497,0 -0.098958,0.014757 z"
           id="path30641" />
        <path
           d="m 6.8291874,4.0493174 q -0.013021,0.043403 -0.030382,0.1289062 l -0.027344,0.1341146 q -0.0026,0.012587 -0.0026,0.020833 0,0.015625 0.00738,0.022569 0.00738,0.00651 0.021701,0.00651 0.052083,0 0.094618,-0.06033 0.042535,-0.060764 0.042535,-0.1358508 0,-0.1072048 -0.069444,-0.172743 -0.069011,-0.065538 -0.1727431,-0.065538 -0.1341146,0 -0.2170139,0.088976 -0.082465,0.088976 -0.082465,0.2291667 0,0.1284722 0.078559,0.2083333 0.078993,0.080295 0.2078994,0.080295 0.1501736,0 0.265191,-0.1080729 l 0.018663,0.020833 q -0.1310764,0.1315104 -0.3059897,0.1315104 -0.1475694,0 -0.2382812,-0.08941 -0.090712,-0.08941 -0.090712,-0.2313368 0,-0.1566841 0.1024306,-0.2591147 0.1028646,-0.1028646 0.2630209,-0.1028646 0.1215278,0 0.2039931,0.074219 0.082465,0.074219 0.082465,0.1914063 0,0.093316 -0.06467,0.1679687 -0.06467,0.074653 -0.1453993,0.074653 -0.032118,0 -0.050781,-0.016059 -0.018663,-0.016059 -0.019965,-0.046875 -0.039931,0.032118 -0.065104,0.047309 -0.02474,0.014757 -0.039931,0.014757 -0.048177,0 -0.076823,-0.03559 -0.028212,-0.036024 -0.028212,-0.091146 0,-0.097656 0.059896,-0.1649305 0.059896,-0.067274 0.1510417,-0.067274 0.034288,0 0.079861,0.013889 0.020399,-0.00391 0.043403,-0.012153 z m -0.080729,0.040365 q -0.027344,-0.014323 -0.05382,-0.014323 -0.055122,0 -0.093316,0.057292 -0.038194,0.056858 -0.038194,0.1263021 0,0.039931 0.014323,0.066406 0.014757,0.026476 0.042101,0.026476 0.024306,0 0.083333,-0.041233 z"
           id="path30643" />
        <path
           d="m 7.1165139,3.824925 4.34e-4,-0.018663 Q 7.2319653,3.788901 7.3187708,3.768501 l 0.00521,0.00521 q -0.00781,0.032552 -0.018663,0.083767 -0.010851,0.050781 -0.023872,0.1111111 L 7.1885638,4.419978 7.06747,4.424318 7.1885638,3.8353422 Z m 0.3980035,0.5985244 q -0.056858,-0.0013 -0.1102431,-0.0013 -0.032986,0 -0.059462,8.68e-4 -0.016059,-0.046007 -0.041667,-0.09809 -0.025608,-0.052517 -0.0625,-0.1158854 0.074653,-0.065972 0.1180556,-0.1111111 0.043403,-0.045573 0.059896,-0.074653 0.013455,4.34e-4 0.03559,4.34e-4 0.049913,0 0.1006945,-0.0013 l -0.00217,0.021701 q -0.021267,0.00347 -0.038628,0.00825 -0.017361,0.00434 -0.032552,0.010417 -0.014757,0.00608 -0.028212,0.015191 -0.013455,0.00868 -0.027778,0.021701 l -0.075087,0.069444 0.095486,0.1775174 q 0.00868,0.016493 0.014757,0.025608 0.00651,0.00911 0.013455,0.014757 0.00738,0.00521 0.017361,0.00825 0.00998,0.00304 0.02691,0.00694 z"
           style="font-style:italic;font-weight:bold;-inkscape-font-specification:'Constantia, Bold Italic'"
           id="path30645" />
        <path
           d="m 7.7996737,4.012425 q 0.09375,0 0.1497396,0.049045 0.05599,0.048611 0.05599,0.1310764 0,0.1041667 -0.068142,0.1727431 -0.067708,0.068576 -0.1753472,0.068576 -0.095052,0 -0.1506077,-0.048611 -0.055121,-0.049045 -0.055121,-0.1293403 0,-0.1054688 0.06684,-0.1744792 0.06684,-0.06901 0.1766493,-0.06901 z m -0.00521,0.044705 q -0.048177,0 -0.079861,0.059462 -0.031684,0.059028 -0.03125,0.1414931 4.34e-4,0.061632 0.022135,0.096354 0.021701,0.034722 0.061632,0.034722 0.049479,0 0.079861,-0.060764 0.030382,-0.061198 0.030382,-0.1406251 0,-0.061632 -0.022135,-0.09592 Q 7.8330927,4.05713 7.7944637,4.05713 Z"
           style="font-style:italic;font-weight:bold;-inkscape-font-specification:'Constantia, Bold Italic'"
           id="path30647" />
        <path
           d="m 8.2371738,3.9212791 0.071615,-0.012587 0.00521,0.00304 q -0.019967,0.08203 -0.027346,0.1163179 h 0.1219619 l -0.00868,0.045573 H 8.2762363 q -0.012587,0.055556 -0.025608,0.1128473 -0.012587,0.056858 -0.024306,0.1145833 -0.00391,0.019531 -0.00391,0.033854 0,0.02474 0.012153,0.034722 0.012153,0.00998 0.034288,0.00998 0.029948,0 0.078993,-0.013455 l 0.00434,0.028212 q -0.080295,0.039063 -0.1514757,0.039063 -0.048611,0 -0.075521,-0.019965 -0.02691,-0.019965 -0.02691,-0.059462 0,-0.013021 0.0026,-0.028646 0.00781,-0.041233 0.021267,-0.1037327 0.013889,-0.0625 0.034722,-0.1519097 l -0.061632,-0.016059 0.0013,-0.018663 0.076389,-0.00694 z"
           style="font-style:italic;font-weight:bold;-inkscape-font-specification:'Constantia, Bold Italic'"
           id="path30649" />
        <path
           d="M 8.86825,4.0180674 Q 8.852191,4.0710188 8.8356979,4.153484 l -0.039063,0.1931424 q -0.00217,0.00998 -0.00217,0.016493 0,0.00911 0.00347,0.014757 0.00391,0.00521 0.011719,0.00868 0.00825,0.00304 0.020833,0.00391 0.013021,8.681e-4 0.031684,8.681e-4 l -0.00304,0.020399 q -0.075955,0.018229 -0.1145833,0.018229 -0.032552,0 -0.051215,-0.014323 -0.018229,-0.014757 -0.018229,-0.042101 v -0.00868 q -0.078559,0.06901 -0.1132812,0.06901 -0.059028,0 -0.09809,-0.045139 -0.039063,-0.045573 -0.039063,-0.1154514 0,-0.109809 0.074653,-0.1853299 0.075087,-0.075521 0.1892361,-0.075521 0.050347,0 0.108507,0.016059 0.032118,-0.00564 0.063802,-0.015191 z m -0.1341146,0.045139 q -0.023437,-0.010851 -0.053385,-0.010851 -0.056858,0 -0.09375,0.065104 -0.036892,0.065104 -0.036892,0.139757 0,0.043837 0.013455,0.077257 0.013889,0.032986 0.031684,0.032986 0.024306,0 0.085937,-0.046441 z"
           style="font-style:italic;font-weight:bold;-inkscape-font-specification:'Constantia, Bold Italic'"
           id="path30651" />
        <path
           d="M 8.9941183,3.824925 8.9945524,3.806262 Q 9.1095698,3.788901 9.1963753,3.768501 l 0.00521,0.00521 q -0.00781,0.032552 -0.018663,0.083767 -0.010851,0.050781 -0.023872,0.1111111 L 9.066167,4.4199771 8.9450732,4.4243174 9.066167,3.8353416 Z m 0.3980036,0.5985244 q -0.056858,-0.0013 -0.1102431,-0.0013 -0.032986,0 -0.059462,8.68e-4 -0.016059,-0.046007 -0.041667,-0.09809 -0.025608,-0.052517 -0.0625,-0.1158854 0.074653,-0.065972 0.1180556,-0.1111111 0.043403,-0.045573 0.059896,-0.074653 0.013455,4.34e-4 0.03559,4.34e-4 0.049913,0 0.1006945,-0.0013 l -0.00217,0.021701 q -0.021267,0.00347 -0.038628,0.00825 -0.017361,0.00434 -0.032552,0.010417 -0.014757,0.00608 -0.028212,0.015191 -0.013455,0.00868 -0.027778,0.021701 l -0.075087,0.069444 0.095486,0.1775174 q 0.00868,0.016493 0.014757,0.025608 0.00651,0.00911 0.013455,0.014757 0.00738,0.00521 0.017361,0.00825 0.00998,0.00304 0.02691,0.00694 z"
           style="font-style:italic;font-weight:bold;-inkscape-font-specification:'Constantia, Bold Italic'"
           id="path30653" />
        <path
           d="m 9.4624345,4.4243174 0.067274,-0.327691 q 0.00347,-0.018663 0.00347,-0.023003 0,-0.00738 -0.00434,-0.011285 -0.00391,-0.00434 -0.012153,-0.00608 -0.00825,-0.00217 -0.020833,-0.0026 -0.012153,-4.34e-4 -0.028212,-4.34e-4 l 0.0026,-0.019965 q 0.077257,-0.019965 0.1184896,-0.019965 0.029948,0 0.048177,0.010851 0.018229,0.010851 0.018229,0.032118 0,0.00391 -4.34e-4,0.00955 0.079861,-0.053385 0.1601563,-0.053385 l 0.00304,0.00391 q -0.015625,0.068142 -0.029948,0.1432292 l -0.02691,0.00434 q -0.00781,-0.047309 -0.019097,-0.064236 -0.011285,-0.017361 -0.032552,-0.017361 -0.023003,0 -0.061198,0.019097 l -0.06467,0.3185764 z"
           style="font-style:italic;font-weight:bold;-inkscape-font-specification:'Constantia, Bold Italic'"
           id="path30655" />
        <path
           d="m 10.177712,4.3388139 0.01476,0.021701 q -0.0829,0.072483 -0.184028,0.072483 -0.078993,0 -0.1276041,-0.042969 -0.048611,-0.042969 -0.048611,-0.1176215 0,-0.1106771 0.078993,-0.1853299 0.078993,-0.074653 0.1914061,-0.074653 0.0625,0 0.09635,0.023003 0.03386,0.022569 0.03386,0.065972 0,0.054253 -0.06944,0.090712 -0.06944,0.036024 -0.2048611,0.042535 -8.68e-4,0.010417 -8.68e-4,0.019531 0,0.058594 0.023872,0.08941 0.023872,0.030382 0.071615,0.030382 0.06163,0 0.124566,-0.035156 z M 9.9620001,4.199925 q 0.1501739,-0.013889 0.1501739,-0.096788 0,-0.023003 -0.01085,-0.034288 -0.01042,-0.011719 -0.02691,-0.011719 -0.03559,0 -0.06771,0.039931 -0.032118,0.039497 -0.044705,0.1028646 z"
           style="font-style:italic;font-weight:bold;-inkscape-font-specification:'Constantia, Bold Italic'"
           id="path30657" />
        <path
           d="m 10.576149,3.824925 4.34e-4,-0.018663 q 0.115452,-0.017795 0.201823,-0.037761 l 0.0052,0.00521 q -0.0039,0.016493 -0.0087,0.03776 -0.0048,0.020833 -0.01042,0.046007 -0.0052,0.024739 -0.01129,0.052951 -0.0056,0.028212 -0.01215,0.05816 l -0.05035,0.2426215 -0.02734,0.1354167 q -0.0022,0.00998 -0.0022,0.016493 0,0.00911 0.0035,0.014757 0.0039,0.00521 0.01172,0.00868 0.0082,0.00304 0.02083,0.00391 0.01302,8.681e-4 0.03168,8.681e-4 l -0.003,0.020399 q -0.07596,0.018229 -0.114583,0.018229 -0.03255,0 -0.05078,-0.014323 -0.01823,-0.014757 -0.01823,-0.042101 v -0.00868 q -0.08029,0.06901 -0.115885,0.06901 -0.05903,0 -0.09809,-0.045139 -0.03906,-0.045573 -0.03906,-0.1154514 0,-0.109809 0.07422,-0.1853299 0.07465,-0.075521 0.188368,-0.075521 0.02778,0 0.05903,0.00477 l 0.03733,-0.1818577 z m 0.02517,0.2382813 q -0.02561,-0.010851 -0.05729,-0.010851 -0.05642,0 -0.09288,0.065104 -0.03646,0.065104 -0.03646,0.139757 0,0.043837 0.01346,0.077257 0.01389,0.032986 0.03168,0.032986 0.02517,0 0.08854,-0.046441 z"
           style="font-style:italic;font-weight:bold;-inkscape-font-specification:'Constantia, Bold Italic'"
           id="path30659" />
        <path
           d="m 11.092643,3.824925 4.34e-4,-0.018663 Q 11.208529,3.788467 11.2949,3.768501 l 0.0052,0.00521 q -0.0039,0.016493 -0.0087,0.03776 -0.0048,0.020833 -0.01042,0.046007 -0.0052,0.024739 -0.01128,0.052951 -0.0056,0.028212 -0.01215,0.05816 L 11.2072,4.2112105 11.17986,4.3466272 q -0.0022,0.00998 -0.0022,0.016493 0,0.00911 0.0035,0.014757 0.0039,0.00521 0.01172,0.00868 0.0082,0.00304 0.02083,0.00391 0.01302,8.681e-4 0.03168,8.681e-4 l -0.003,0.020399 q -0.07596,0.018229 -0.114583,0.018229 -0.03255,0 -0.05078,-0.014323 -0.01823,-0.014757 -0.01823,-0.042101 v -0.00868 q -0.0803,0.06901 -0.115885,0.06901 -0.05903,0 -0.09809,-0.045139 -0.03906,-0.045573 -0.03906,-0.1154514 0,-0.109809 0.07422,-0.1853299 0.07465,-0.075521 0.188368,-0.075521 0.02778,0 0.05903,0.00477 l 0.03733,-0.1818577 z m 0.02517,0.2382813 q -0.02561,-0.010851 -0.05729,-0.010851 -0.05642,0 -0.09288,0.065104 -0.03646,0.065104 -0.03646,0.139757 0,0.043837 0.01346,0.077257 0.01389,0.032986 0.03168,0.032986 0.02517,0 0.08854,-0.046441 z"
           style="font-style:italic;font-weight:bold;-inkscape-font-specification:'Constantia, Bold Italic'"
           id="path30661" />
        <path
           d="m 11.626497,4.0428069 q 0.06424,-0.017795 0.116754,-0.03342 l 0.0095,0.00651 q -0.01693,0.046875 -0.03516,0.088108 -0.0178,0.041233 -0.03646,0.077691 -0.01823,0.036458 -0.03689,0.06901 -0.01823,0.032118 -0.03559,0.060764 -0.01823,0.029948 -0.03429,0.056424 -0.01563,0.026042 -0.02951,0.050347 -0.01129,0.019097 -0.02344,0.042969 -0.01172,0.024306 -0.02344,0.049045 -0.01129,0.025174 -0.02083,0.048611 -0.0095,0.023872 -0.01606,0.041233 -0.0052,0.014323 -0.01302,0.022135 -0.0074,0.00825 -0.01823,0.012153 -0.01085,0.00391 -0.02604,0.00477 -0.01476,8.68e-4 -0.03472,8.68e-4 -0.05425,0 -0.09462,-0.00434 l -0.0022,-0.022135 q 0.02604,-0.00304 0.04731,-0.00955 0.0217,-0.00651 0.03689,-0.018663 0.0091,-0.00694 0.01997,-0.017795 0.01128,-0.010417 0.02604,-0.028646 0.01519,-0.018229 0.03516,-0.046441 0.0204,-0.027778 0.04774,-0.069444 l -0.02431,-0.00564 q -0.003,-0.023437 -0.0095,-0.054687 -0.0065,-0.03125 -0.01519,-0.065104 -0.0087,-0.033854 -0.01866,-0.068142 -0.01,-0.034722 -0.01997,-0.064236 -0.01,-0.029514 -0.0191,-0.051649 -0.0091,-0.02257 -0.01563,-0.032552 -0.0069,-0.010417 -0.01519,-0.015625 -0.0082,-0.00564 -0.01823,-0.00781 -0.0095,-0.0026 -0.02127,-0.00304 -0.01129,-8.681e-4 -0.02431,-0.0013 l 0.0026,-0.019965 q 0.07422,-0.019965 0.115452,-0.019965 0.02344,0 0.04167,0.00694 0.01823,0.00694 0.02691,0.022569 0.0065,0.011719 0.01606,0.034288 0.0095,0.022569 0.01953,0.052517 0.01,0.029514 0.01997,0.064236 0.01042,0.034722 0.01823,0.070747 l 0.0082,0.046875 q 0.03386,-0.065972 0.05252,-0.1323785 0.0191,-0.06684 0.02127,-0.1362848 z"
           style="font-style:italic;font-weight:bold;-inkscape-font-specification:'Constantia, Bold Italic'"
           id="path30663" />
        <path
           d="m 11.798372,4.2984493 q 0.02865,0 0.04731,0.018663 0.01866,0.018229 0.01866,0.048611 0,0.029948 -0.01866,0.049045 -0.01866,0.019097 -0.04731,0.019097 -0.02995,0 -0.04861,-0.019097 -0.01823,-0.019097 -0.01823,-0.049045 0,-0.030382 0.01823,-0.048611 0.01866,-0.018663 0.04861,-0.018663 z"
           style="font-style:italic;font-weight:bold;-inkscape-font-specification:'Constantia, Bold Italic'"
           id="path30665" />
        <path
           d="m 12.306619,4.3353417 0.01476,0.021701 q -0.07465,0.076823 -0.169271,0.076823 -0.07292,0 -0.12066,-0.045139 -0.04731,-0.045573 -0.04731,-0.1236979 0,-0.1072049 0.07899,-0.1796875 0.07899,-0.072483 0.187934,-0.072483 0.0612,0 0.115886,0.019965 -0.01606,0.062934 -0.02821,0.1280382 l -0.0217,0.00347 L 12.283615,4.0593 q -0.01172,-0.00347 -0.02648,-0.00347 -0.06554,0 -0.105902,0.056858 -0.04036,0.056424 -0.04036,0.1388889 0,0.057726 0.02517,0.089844 0.02561,0.031684 0.06901,0.031684 0.04731,0 0.101563,-0.03776 z"
           style="font-style:italic;font-weight:bold;-inkscape-font-specification:'Constantia, Bold Italic'"
           id="path30667" />
        <path
           d="m 12.659917,4.012425 q 0.09375,0 0.14974,0.049045 0.05599,0.048611 0.05599,0.1310764 0,0.1041667 -0.06814,0.1727431 -0.06771,0.068576 -0.175347,0.068576 -0.09505,0 -0.150608,-0.048611 -0.05512,-0.049045 -0.05512,-0.1293403 0,-0.1054688 0.06684,-0.1744792 0.06684,-0.06901 0.176649,-0.06901 z m -0.0052,0.044705 q -0.04818,0 -0.07986,0.059462 -0.03168,0.059028 -0.03125,0.1414931 4.34e-4,0.061632 0.02214,0.096354 0.0217,0.034722 0.06163,0.034722 0.04948,0 0.07986,-0.060764 0.03038,-0.061198 0.03038,-0.1406251 0,-0.061632 -0.02214,-0.09592 -0.02214,-0.034722 -0.06076,-0.034722 z"
           style="font-style:italic;font-weight:bold;-inkscape-font-specification:'Constantia, Bold Italic'"
           id="path30669" />
        <path
           d="m 12.945074,4.4243174 0.06727,-0.327691 q 0.0035,-0.017361 0.0035,-0.023003 0,-0.00738 -0.0043,-0.011285 -0.0039,-0.00434 -0.01215,-0.00608 -0.0082,-0.00217 -0.02083,-0.0026 -0.01215,-4.34e-4 -0.02821,-4.34e-4 l 0.0026,-0.019965 q 0.07726,-0.019965 0.11849,-0.019965 0.02995,0 0.04818,0.010851 0.01866,0.010851 0.01866,0.032118 0,8.681e-4 -4.34e-4,0.00304 0,0.00217 -4.34e-4,0.00564 0.08464,-0.052083 0.154514,-0.052083 0.07161,0 0.09245,0.056424 0.09332,-0.056424 0.167535,-0.056424 0.04731,0 0.07335,0.025174 0.02648,0.02474 0.02648,0.067274 0,0.018663 -0.0048,0.039931 l -0.0434,0.2057292 q -8.68e-4,0.00347 -0.0013,0.00694 -4.34e-4,0.00304 -4.34e-4,0.00608 0,0.00911 0.0043,0.014323 0.0043,0.00521 0.01259,0.00781 0.0087,0.00217 0.02127,0.00304 0.01259,4.34e-4 0.02865,4.34e-4 l -0.0017,0.019965 q -0.0651,0.020399 -0.119358,0.020399 -0.03385,0 -0.05121,-0.012587 -0.01693,-0.012587 -0.01693,-0.041233 0,-0.013455 0.0035,-0.03125 l 0.03906,-0.1814236 q 0.0048,-0.022569 0.0048,-0.03776 0,-0.026042 -0.01172,-0.038195 -0.01172,-0.012587 -0.03385,-0.012587 -0.03342,0 -0.09115,0.028212 0,0.019097 -0.0048,0.042101 l -0.05642,0.2747396 -0.121961,0.00434 0.05339,-0.2608507 q 0.0048,-0.023872 0.0048,-0.03776 0,-0.026042 -0.01128,-0.038195 -0.01085,-0.012587 -0.03299,-0.012587 -0.03299,0 -0.08984,0.027778 l -0.06467,0.3172743 z"
           style="font-style:italic;font-weight:bold;-inkscape-font-specification:'Constantia, Bold Italic'"
           id="path30671" />
      </g>
      <path
         id="rect11662"
         style="stroke-width:0.00778017"
         d="m 1.5463949,4.3232946 h 0.040695 v 2.7846969 h -0.040695 z" />
      <g
         aria-label="email"
         id="text14130"
         style="font-size:0.416667px;line-height:1.25;stroke-width:0.0104167">
        <path
           d="M 7.0102997,7.1068499 H 6.8428598 q 0,0.020955 0.00631,0.036621 0.00631,0.015462 0.017293,0.025431 0.010579,0.00977 0.025024,0.014648 0.014648,0.00488 0.032145,0.00488 0.023193,0 0.04659,-0.00916 0.0236,-0.00936 0.033569,-0.018311 h 0.00203 v 0.041707 q -0.019328,0.00814 -0.039469,0.013631 -0.020142,0.00549 -0.042318,0.00549 -0.056559,0 -0.088298,-0.030518 -0.031738,-0.030721 -0.031738,-0.087077 0,-0.055746 0.030314,-0.088501 0.030518,-0.032756 0.080159,-0.032756 0.04598,0 0.070801,0.026855 0.025024,0.026855 0.025024,0.076294 z M 6.9730682,7.077553 q -2.034e-4,-0.030111 -0.015259,-0.04659 -0.014852,-0.016479 -0.04537,-0.016479 -0.030721,0 -0.049032,0.018107 -0.018107,0.018107 -0.020548,0.044963 z"
           id="path30675" />
        <path
           d="M 7.3999078,7.2165098 H 7.3616591 V 7.0871152 q 0,-0.014649 -0.00142,-0.02828 -0.00122,-0.013631 -0.00549,-0.021769 -0.00468,-0.00875 -0.013428,-0.013224 -0.00875,-0.00448 -0.025228,-0.00448 -0.016073,0 -0.032145,0.00814 -0.016073,0.00793 -0.032145,0.020345 6.103e-4,0.00468 0.00102,0.010986 4.069e-4,0.0061 4.069e-4,0.012207 V 7.2165098 H 7.2149711 V 7.0871152 q 0,-0.015055 -0.00142,-0.028483 -0.00122,-0.013631 -0.00549,-0.021769 -0.00468,-0.00875 -0.013428,-0.013021 -0.00875,-0.00448 -0.025228,-0.00448 -0.015666,0 -0.031535,0.00773 -0.015666,0.00773 -0.031331,0.019735 V 7.2165098 H 7.0682832 V 6.9892554 h 0.038249 v 0.025228 q 0.017904,-0.014852 0.035604,-0.023193 0.017904,-0.00834 0.038045,-0.00834 0.023193,0 0.039266,0.00977 0.016276,0.00977 0.024211,0.027059 0.023193,-0.019531 0.042318,-0.028076 0.019124,-0.00875 0.040894,-0.00875 0.037435,0 0.055135,0.022787 0.017904,0.022583 0.017904,0.063273 z"
           id="path30677" />
        <path
           d="m 7.6501521,7.2165098 h -0.038045 v -0.024211 q -0.00509,0.00346 -0.013835,0.00977 -0.00854,0.0061 -0.016683,0.00977 -0.00956,0.00468 -0.021973,0.00773 -0.01241,0.00326 -0.029094,0.00326 -0.030721,0 -0.052083,-0.020345 -0.021362,-0.020345 -0.021362,-0.05188 0,-0.025838 0.010986,-0.041707 0.01119,-0.016073 0.031738,-0.025228 0.020752,-0.00916 0.049845,-0.01241 0.029094,-0.00326 0.062459,-0.00488 v -0.0059 q 0,-0.013021 -0.00468,-0.021566 -0.00448,-0.00854 -0.013021,-0.013428 -0.00814,-0.00468 -0.019531,-0.00631 -0.011393,-0.00163 -0.023804,-0.00163 -0.015055,0 -0.033569,0.00407 -0.018514,0.00387 -0.038249,0.011393 h -0.00203 v -0.038859 q 0.01119,-0.00305 0.032349,-0.00671 0.021159,-0.00366 0.041707,-0.00366 0.024007,0 0.041707,0.00407 0.017904,0.00387 0.030925,0.013428 0.012817,0.00936 0.019531,0.024211 0.00671,0.014852 0.00671,0.036825 z m -0.038045,-0.055949 v -0.063273 q -0.017497,0.00102 -0.0413,0.00305 -0.0236,0.00203 -0.037435,0.0059 -0.01648,0.00468 -0.026652,0.014648 -0.010172,0.00977 -0.010172,0.027059 0,0.019531 0.0118,0.0295 0.0118,0.00977 0.036011,0.00977 0.020142,0 0.036825,-0.00773 0.016683,-0.00793 0.030924,-0.018921 z"
           id="path30679" />
        <path
           d="m 7.7648983,6.9512101 h -0.043131 v -0.039673 h 0.043131 z m -0.00244,0.2652997 h -0.03825 V 6.9892554 h 0.038249 z"
           id="path30681" />
        <path
           d="M 7.8767962,7.2165098 H 7.8385475 V 6.8999405 h 0.038249 z"
           id="path30683" />
      </g>
      <g
         aria-label="website"
         id="text15892"
         style="font-size:0.416667px;line-height:1.25;stroke-width:0.0104167">
        <path
           d="m 9.7316764,1.6718272 -0.059204,0.2272544 h -0.0354 L 9.5786815,1.7239105 9.520698,1.8990816 H 9.485501 L 9.4256865,1.6718272 h 0.039876 L 9.5072703,1.847812 9.564033,1.6718272 H 9.595568 L 9.653755,1.847812 9.693224,1.6718272 Z"
           id="path30686" />
        <path
           d="M 9.9770379,1.7894217 H 9.809598 q 0,0.020955 0.00631,0.036621 0.00631,0.015462 0.017293,0.025431 0.010579,0.00977 0.025024,0.014649 0.014648,0.00488 0.032145,0.00488 0.023193,0 0.04659,-0.00916 0.0236,-0.00936 0.033569,-0.018311 h 0.00203 v 0.041707 q -0.019328,0.00814 -0.039469,0.013631 -0.020142,0.00549 -0.042318,0.00549 -0.056559,0 -0.088298,-0.030518 -0.031738,-0.030721 -0.031738,-0.087077 0,-0.055746 0.030314,-0.088501 0.030518,-0.032756 0.080159,-0.032756 0.04598,0 0.070801,0.026855 0.025024,0.026856 0.025024,0.076294 z m -0.037231,-0.029297 q -2.034e-4,-0.030111 -0.015259,-0.04659 -0.014852,-0.016479 -0.045369,-0.016479 -0.030721,0 -0.049032,0.018107 -0.018107,0.018107 -0.020549,0.044963 z"
           id="path30688" />
        <path
           d="m 10.235013,1.783725 q 0,0.028483 -0.0081,0.05127 -0.0079,0.022787 -0.02156,0.038249 -0.01445,0.016073 -0.03174,0.024211 -0.01729,0.00793 -0.03805,0.00793 -0.01933,0 -0.03377,-0.00468 -0.01445,-0.00448 -0.02848,-0.012207 l -0.0024,0.010579 h -0.03581 V 1.5825123 h 0.03825 v 0.1131186 q 0.01607,-0.013224 0.03418,-0.021566 0.01811,-0.00854 0.04069,-0.00854 0.04028,0 0.06348,0.030925 0.0234,0.030925 0.0234,0.08728 z m -0.03947,0.00102 q 0,-0.04069 -0.01343,-0.061646 -0.01343,-0.021159 -0.04334,-0.021159 -0.01668,0 -0.03377,0.00732 -0.01709,0.00712 -0.03174,0.018514 v 0.1302084 q 0.01628,0.00732 0.02787,0.010173 0.0118,0.00285 0.02665,0.00285 0.03174,0 0.04964,-0.020752 0.01811,-0.020955 0.01811,-0.065511 z"
           id="path30690" />
        <path
           d="m 10.456978,1.8335705 q 0,0.031128 -0.02584,0.051066 -0.02563,0.019938 -0.07019,0.019938 -0.02523,0 -0.04639,-0.0059 -0.02096,-0.0061 -0.0352,-0.013224 v -0.042928 h 0.002 q 0.01811,0.013631 0.04028,0.021769 0.02218,0.00793 0.04252,0.00793 0.02523,0 0.03947,-0.00814 0.01424,-0.00814 0.01424,-0.025635 0,-0.013428 -0.0077,-0.020345 -0.0077,-0.00692 -0.0297,-0.0118 -0.0081,-0.00183 -0.02136,-0.00427 -0.01302,-0.00244 -0.0238,-0.00529 -0.02991,-0.00793 -0.04252,-0.023193 -0.01241,-0.015462 -0.01241,-0.037842 0,-0.014038 0.0057,-0.026449 0.0059,-0.01241 0.0177,-0.022176 0.01139,-0.00956 0.02889,-0.015055 0.0177,-0.0057 0.03947,-0.0057 0.02034,0 0.0411,0.00509 0.02096,0.00488 0.03479,0.012004 v 0.040893 h -0.002 q -0.01465,-0.010783 -0.0356,-0.018107 -0.02096,-0.00753 -0.0411,-0.00753 -0.02096,0 -0.0354,0.00814 -0.01445,0.00793 -0.01445,0.023804 0,0.014038 0.0087,0.021159 0.0085,0.00712 0.02767,0.011597 0.01058,0.00244 0.0236,0.00488 0.01323,0.00244 0.02197,0.00448 0.02665,0.0061 0.0411,0.020955 0.01445,0.015055 0.01445,0.039876 z"
           id="path30692" />
        <path
           d="m 10.552803,1.6337819 h -0.04313 V 1.594109 h 0.04313 z m -0.0024,0.2652997 h -0.03825 V 1.6718272 h 0.03825 z"
           id="path30694" />
        <path
           d="m 10.744047,1.8970471 q -0.01078,0.00285 -0.0236,0.00468 -0.01261,0.00183 -0.02258,0.00183 -0.03479,0 -0.0529,-0.018717 -0.01811,-0.018717 -0.01811,-0.060018 V 1.7039724 h -0.02584 v -0.032145 h 0.02584 v -0.065308 h 0.03825 v 0.065308 h 0.07894 v 0.032145 h -0.07894 v 0.1035564 q 0,0.017904 8.14e-4,0.028076 8.14e-4,0.00997 0.0057,0.018717 0.0045,0.00814 0.01221,0.012004 0.0079,0.00366 0.02401,0.00366 0.0094,0 0.01953,-0.00264 0.01017,-0.00285 0.01465,-0.00468 h 0.002 z"
           id="path30696" />
        <path
           d="m 10.980457,1.7894217 h -0.16744 q 0,0.020955 0.0063,0.036621 0.0063,0.015462 0.01729,0.025431 0.01058,0.00977 0.02502,0.014649 0.01465,0.00488 0.03214,0.00488 0.02319,0 0.04659,-0.00916 0.0236,-0.00936 0.03357,-0.018311 h 0.002 v 0.041707 q -0.01933,0.00814 -0.03947,0.013631 -0.02014,0.00549 -0.04232,0.00549 -0.05656,0 -0.0883,-0.030518 -0.03174,-0.030721 -0.03174,-0.087077 0,-0.055746 0.03031,-0.088501 0.03052,-0.032756 0.08016,-0.032756 0.04598,0 0.0708,0.026855 0.02502,0.026856 0.02502,0.076294 z m -0.03723,-0.029297 q -2.03e-4,-0.030111 -0.01526,-0.04659 -0.01485,-0.016479 -0.04537,-0.016479 -0.03072,0 -0.04903,0.018107 -0.01811,0.018107 -0.02055,0.044963 z"
           id="path30698" />
      </g>
      <g
         aria-label="gitprofile"
         id="text17744"
         style="font-size:0.416667px;line-height:1.25;stroke-width:0.0104167">
        <path
           d="m 3.5046631,1.877132 q 0,0.05778 -0.026245,0.084839 -0.026245,0.027059 -0.08077,0.027059 -0.018107,0 -0.0354,-0.00264 -0.01709,-0.00244 -0.033773,-0.00712 V 1.940207 h 0.00203 q 0.00936,0.00366 0.029704,0.00895 0.020345,0.00549 0.04069,0.00549 0.019531,0 0.032349,-0.00468 0.012817,-0.00468 0.019938,-0.013021 0.00712,-0.00793 0.010172,-0.019124 0.00305,-0.01119 0.00305,-0.025024 V 1.872046 q -0.017293,0.013835 -0.033162,0.020752 -0.015666,0.00671 -0.04008,0.00671 -0.04069,0 -0.064697,-0.029297 -0.023804,-0.0295 -0.023804,-0.083008 0,-0.029297 0.00814,-0.050456 0.00834,-0.021362 0.022583,-0.036825 0.013224,-0.014445 0.032145,-0.02238 0.018921,-0.00814 0.037638,-0.00814 0.019735,0 0.032959,0.00407 0.013428,0.00387 0.02828,0.012004 l 0.00244,-0.00977 h 0.035807 z M 3.4664144,1.8405108 V 1.7166094 q -0.015259,-0.00692 -0.028483,-0.00977 -0.013021,-0.00305 -0.026042,-0.00305 -0.031535,0 -0.049642,0.021159 -0.018107,0.021159 -0.018107,0.061442 0,0.038249 0.013428,0.057983 0.013428,0.019735 0.044556,0.019735 0.016683,0 0.033366,-0.00631 0.016886,-0.00651 0.030925,-0.017293 z"
           id="path30701" />
        <path
           d="m 3.6210369,1.6376705 h -0.043132 v -0.039673 h 0.043132 z m -0.00244,0.2652997 h -0.03825 V 1.6757158 h 0.038249 z"
           id="path30703" />
        <path
           d="m 3.8122805,1.9009357 q -0.010783,0.00285 -0.0236,0.00468 -0.012614,0.00183 -0.022583,0.00183 -0.03479,0 -0.052897,-0.018717 -0.018107,-0.018717 -0.018107,-0.060018 V 1.707861 H 3.6692555 V 1.675716 h 0.025838 V 1.610408 h 0.038249 v 0.065308 h 0.078939 v 0.032145 h -0.078939 v 0.1035564 q 0,0.017904 8.138e-4,0.028076 8.138e-4,0.00997 0.0057,0.018717 0.00448,0.00814 0.012207,0.012004 0.00793,0.00366 0.024007,0.00366 0.00936,0 0.019531,-0.00264 0.010173,-0.00285 0.014648,-0.00468 h 0.00203 z"
           id="path30705" />
        <path
           d="m 4.0584559,1.7865964 q 0,0.027669 -0.00793,0.050659 -0.00793,0.022787 -0.02238,0.038656 -0.013428,0.015055 -0.031738,0.023397 -0.018107,0.00814 -0.038452,0.00814 -0.0177,0 -0.032145,-0.00387 -0.014242,-0.00387 -0.029093,-0.012003 v 0.095215 H 3.8584638 V 1.6757158 h 0.038249 v 0.023804 q 0.015259,-0.012817 0.03418,-0.021362 0.019124,-0.00875 0.04069,-0.00875 0.041097,0 0.063884,0.031128 0.02299,0.030925 0.02299,0.08606 z m -0.03947,0.00102 q 0,-0.041097 -0.014038,-0.061442 -0.014038,-0.020345 -0.043131,-0.020345 -0.016479,0 -0.033162,0.00712 -0.016683,0.00712 -0.031942,0.018718 V 1.860449 q 0.016276,0.00732 0.027873,0.00997 0.0118,0.00264 0.026652,0.00264 0.031942,0 0.049845,-0.021566 0.017904,-0.021566 0.017904,-0.063883 z"
           id="path30707" />
        <path
           d="m 4.259872,1.7174232 h -0.00203 q -0.00854,-0.00203 -0.016683,-0.00285 -0.00793,-0.00102 -0.018921,-0.00102 -0.0177,0 -0.03418,0.00793 -0.016479,0.00773 -0.031738,0.020142 v 0.161345 H 4.1180669 V 1.6757158 h 0.038249 v 0.033569 q 0.022786,-0.01831 0.04008,-0.025838 0.017497,-0.00773 0.035604,-0.00773 0.00997,0 0.014445,6.103e-4 0.00448,4.069e-4 0.013428,0.00183 z"
           id="path30709" />
        <path
           d="m 4.4895679,1.7894447 q 0,0.055542 -0.028483,0.087687 -0.028483,0.032145 -0.076294,0.032145 -0.048218,0 -0.076701,-0.032145 -0.02828,-0.032145 -0.02828,-0.087687 0,-0.055542 0.02828,-0.087687 0.028483,-0.032349 0.076701,-0.032349 0.047811,0 0.076294,0.032349 0.028483,0.032145 0.028483,0.087687 z m -0.039469,0 q 0,-0.044149 -0.017293,-0.065511 -0.017293,-0.021566 -0.048014,-0.021566 -0.031128,0 -0.048421,0.021566 -0.01709,0.021362 -0.01709,0.065511 0,0.042725 0.017293,0.064901 0.017293,0.021973 0.048218,0.021973 0.030518,0 0.047811,-0.021769 0.017497,-0.021973 0.017497,-0.065104 z"
           id="path30711" />
        <path
           d="m 4.6710459,1.6234289 h -0.00203 q -0.00631,-0.00183 -0.016479,-0.00366 -0.010172,-0.00203 -0.017904,-0.00203 -0.024617,0 -0.035807,0.010986 -0.010986,0.010783 -0.010986,0.039266 v 0.00773 h 0.06897 v 0.03214 H 4.5890553 V 1.9029702 H 4.5508066 V 1.707861 H 4.5249686 V 1.675716 h 0.025838 v -0.00753 q 0,-0.040487 0.020142,-0.062053 0.020142,-0.021769 0.058187,-0.021769 0.012817,0 0.02299,0.00122 0.010376,0.00122 0.018921,0.00285 z"
           id="path30713" />
        <path
           d="M 4.7363536,1.6376705 H 4.693222 v -0.039673 h 0.043132 z m -0.00244,0.2652997 h -0.03825 V 1.6757158 h 0.038249 z"
           id="path30715" />
        <path
           d="M 4.8482514,1.9029702 H 4.8100027 V 1.5864009 h 0.038249 z"
           id="path30717" />
        <path
           d="M 5.1141615,1.7933103 H 4.9467216 q 0,0.020955 0.00631,0.036621 0.00631,0.015462 0.017293,0.025431 0.010579,0.00977 0.025024,0.014649 0.014649,0.00488 0.032145,0.00488 0.023193,0 0.04659,-0.00916 0.0236,-0.00936 0.033569,-0.018311 h 0.00203 v 0.041707 q -0.019328,0.00814 -0.039469,0.013631 -0.020142,0.00549 -0.042318,0.00549 -0.056559,0 -0.088298,-0.030518 -0.031738,-0.030721 -0.031738,-0.087077 0,-0.055746 0.030314,-0.088501 0.030518,-0.032756 0.08016,-0.032756 0.04598,0 0.070801,0.026855 0.025024,0.026856 0.025024,0.076294 z M 5.07693,1.7640134 q -2.034e-4,-0.030111 -0.015259,-0.04659 -0.014852,-0.016479 -0.04537,-0.016479 -0.030721,0 -0.049032,0.018107 -0.018107,0.018107 -0.020549,0.044963 z"
           id="path30719" />
      </g>
      <path
         id="rect20840"
         style="stroke-width:0.00740437"
         d="m 1.5735252,7.0808616 h 5.2224741 v 0.040697 H 1.5735252 Z" />
      <path
         id="rect21748"
         style="stroke-width:0.00767476"
         transform="scale(1,-1)"
         d="m 7.908319,-7.0862312 h 5.900752 v 0.026203 H 7.908319 Z" />
      <path
         id="rect11662-0"
         style="stroke-width:0.00778017"
         d="m 13.809071,4.3015342 h 0.04069 V 7.086231 h -0.04069 z" />
      <path
         id="rect11662-0-5"
         style="stroke-width:0.00689625"
         d="m 13.809071,1.7745219 h 0.04069 v 2.1878908 h -0.04069 z" />
      <path
         id="rect11662-0-7"
         style="stroke-width:0.00694075"
         d="m 6.9791231,1.7398901 h 0.040695 v 2.2162178 h -0.040695 z" />
      <path
         id="rect11662-0-9"
         style="stroke-width:0.00694094"
         d="m 1.5463949,1.7963303 h 0.040695 v 2.2163413 h -0.040695 z" />
      <path
         id="rect20840-9"
         style="stroke-width:0.00402892"
         d="m 1.5463949,1.7556332 h 1.546243 v 0.040697 h -1.546243 z" />
      <path
         id="rect20840-3"
         style="stroke-width:0.00315724"
         d="m 5.3242083,1.7408597 h 0.9495416 v 0.040697 H 5.3242083 Z" />
      <path
         id="rect20840-92"
         style="stroke-width:0.00537658"
         d="m 11.096063,1.7527618 h 2.753668 v 0.040697 h -2.753668 z" />
      <path
         id="rect20840-6"
         style="stroke-width:0.00487659"
         d="m 7.0198178,1.7398901 h 2.2653337 v 0.040697 H 7.0198178 Z" />
      <path
         id="rect11662-0-7-3"
         style="stroke-width:0.00694075"
         d="m 6.2330551,1.7408597 h 0.040695 v 2.2162178 h -0.040695 z" />
    </g>
  </g>
</svg>
